<svg width="301" height="301" viewBox="0 0 301 301" fill="none" xmlns="http://www.w3.org/2000/svg">
<path fill-rule="evenodd" clip-rule="evenodd" d="M228.192 187.912C229.192 192.779 230.559 197.979 232.292 203.512C234.026 209.112 236.026 214.812 238.292 220.612C240.492 226.479 242.792 232.345 245.192 238.212C247.659 244.079 250.059 249.779 252.392 255.312C254.726 260.845 256.892 266.045 258.892 270.912C260.892 275.779 262.592 280.145 263.992 284.012C265.392 287.945 266.326 291.212 266.792 293.812C267.259 296.345 267.159 298.145 266.492 299.212C265.826 300.212 264.592 300.479 262.792 300.012C260.992 299.479 258.692 298.412 255.892 296.812C253.159 295.145 249.992 293.112 246.392 290.712C242.792 288.245 238.892 285.579 234.692 282.712C230.492 279.779 226.059 276.779 221.392 273.712C216.726 270.712 211.926 267.812 206.992 265.012C202.059 262.212 197.059 259.679 191.992 257.412C186.926 255.145 181.892 253.345 176.892 252.012C171.892 250.679 166.992 249.879 162.192 249.612C157.392 249.279 152.692 249.345 148.092 249.812C143.559 250.345 139.126 251.112 134.792 252.112C130.459 253.179 126.259 254.379 122.192 255.712C118.192 257.112 114.359 258.512 110.692 259.912C106.959 261.312 103.426 262.645 100.092 263.912C96.7591 265.112 93.6258 266.079 90.6925 266.812C87.7591 267.612 85.0591 268.045 82.5925 268.112C80.1258 268.245 77.8591 267.912 75.7925 267.112C73.7258 266.312 71.8591 265.112 70.1925 263.512C68.5258 261.912 66.9925 259.979 65.5925 257.712C64.1925 255.512 62.8591 253.012 61.5925 250.212C60.3258 247.412 59.0925 244.445 57.8925 241.312C56.6925 238.179 55.4591 234.912 54.1925 231.512C52.9258 228.112 51.5591 224.679 50.0925 221.212C48.6925 217.679 47.1591 214.212 45.4925 210.812C43.8258 207.345 41.9591 203.979 39.8925 200.712C37.8258 197.445 35.6258 194.279 33.2925 191.212C31.0258 188.145 28.6591 185.179 26.1925 182.312C23.7925 179.445 21.3925 176.679 18.9925 174.012C16.6591 171.345 14.4258 168.779 12.2925 166.312C10.2258 163.779 8.32579 161.379 6.59246 159.112C4.92579 156.779 3.55913 154.512 2.49246 152.312C1.42579 150.112 0.759126 147.979 0.49246 145.912C0.225793 143.912 0.425793 141.945 1.09246 140.012C1.82579 138.079 3.02579 136.179 4.69246 134.312C6.35913 132.445 8.42579 130.612 10.8925 128.812C13.4258 127.012 16.1925 125.212 19.1925 123.412C22.2591 121.612 25.4925 119.745 28.8925 117.812C32.3591 115.945 35.8591 114.012 39.3925 112.012C42.9258 110.012 46.4258 107.945 49.8925 105.812C53.3591 103.612 56.6591 101.312 59.7925 98.9119C62.9925 96.5786 65.8925 94.0786 68.4925 91.4119C71.1591 88.7452 73.4591 85.9119 75.3925 82.9119C77.3258 79.9786 78.9925 76.9119 80.3925 73.7119C81.7258 70.5119 82.8591 67.2786 83.7925 64.0119C84.7258 60.6786 85.5258 57.3452 86.1925 54.0119C86.7925 50.6786 87.3591 47.4119 87.8925 44.2119C88.3591 40.9452 88.8591 37.7786 89.3925 34.7119C89.9258 31.6452 90.5591 28.7119 91.2925 25.9119C91.9591 23.1119 92.7925 20.5119 93.7925 18.1119C94.8591 15.7119 96.1258 13.5452 97.5925 11.6119C99.0591 9.67858 100.759 8.01191 102.692 6.61191C104.626 5.21191 106.759 4.01191 109.092 3.01191C111.426 2.07858 113.892 1.37858 116.492 0.911914C119.092 0.445247 121.759 0.211914 124.492 0.211914C127.292 0.211914 130.126 0.411914 132.992 0.811914C135.859 1.21191 138.726 1.81191 141.592 2.61191C144.459 3.41191 147.292 4.44525 150.092 5.71191C152.826 6.91191 155.492 8.31191 158.092 9.91191C160.692 11.4452 163.159 13.1786 165.492 15.1119C167.826 16.9786 170.126 18.9786 172.392 21.1119C174.592 23.2452 176.759 25.4452 178.892 27.7119C181.026 29.9786 183.159 32.2452 185.292 34.5119C187.426 36.8452 189.592 39.1119 191.792 41.3119C193.992 43.5119 196.259 45.6119 198.592 47.6119C200.926 49.6786 203.359 51.5786 205.892 53.3119C208.492 55.1119 211.226 56.6786 214.092 58.0119C216.959 59.4119 219.992 60.5786 223.192 61.5119C226.392 62.4452 229.692 63.2119 233.092 63.8119C236.559 64.3452 240.059 64.7786 243.592 65.1119C247.126 65.4452 250.659 65.7119 254.192 65.9119C257.726 66.1119 261.159 66.3119 264.492 66.5119C267.892 66.7119 271.126 66.9452 274.192 67.2119C277.326 67.4786 280.226 67.8452 282.892 68.3119C285.559 68.8452 287.959 69.5119 290.092 70.3119C292.226 71.1119 294.026 72.1452 295.492 73.4119C296.959 74.6786 298.092 76.1119 298.892 77.7119C299.692 79.3786 300.159 81.2119 300.292 83.2119C300.492 85.2119 300.392 87.3119 299.992 89.5119C299.526 91.7119 298.826 93.9786 297.892 96.3119C296.959 98.6452 295.792 100.979 294.392 103.312C292.992 105.712 291.359 108.045 289.492 110.312C287.626 112.579 285.592 114.779 283.392 116.912C281.192 119.045 278.826 121.079 276.292 123.012C273.826 124.879 271.192 126.612 268.392 128.212C265.659 129.812 262.892 131.379 260.092 132.912C257.226 134.379 254.426 135.879 251.692 137.412C248.959 138.945 246.359 140.579 243.892 142.312C241.359 144.045 239.059 145.945 236.992 148.012C234.859 150.079 233.026 152.379 231.492 154.912C229.959 157.512 228.759 160.412 227.892 163.612C227.026 166.812 226.626 170.445 226.692 174.512C226.692 178.512 227.192 182.979 228.192 187.912Z" fill="#B46ACB" fill-opacity="0.2"/>
</svg>
