<svg width="600" height="619" viewBox="0 0 600 619" fill="none" xmlns="http://www.w3.org/2000/svg">
<path d="M448.325 150.379C444.686 142.342 440.873 134.425 436.534 126.881C386.453 39.8277 252.328 -7.56293 185.868 82.4174C170.028 103.863 164.508 129.778 153.846 154.374C129.598 210.313 84.2928 243.756 55.884 295.554C33.8628 335.707 36.7992 387.168 49.0836 430.575C62.4324 477.743 85.9236 510.685 123.5 535.726C165.626 563.799 210.682 556.004 256.216 546.235C276.694 541.842 297.806 537.36 318.745 539.036C344.96 541.136 370.842 549.593 396.851 553.704C423.899 557.979 451.963 558.99 478.019 549.673C561.461 519.837 581.23 380.021 546.916 299.929C534.769 271.579 514.184 249.707 495.068 227.516C474.434 203.561 461.786 180.117 448.325 150.379Z" fill="#92E3A9"/>
<path opacity="0.8" d="M448.325 150.379C444.686 142.342 440.873 134.425 436.534 126.881C386.453 39.8277 252.328 -7.56293 185.868 82.4174C170.028 103.863 164.508 129.778 153.846 154.374C129.598 210.313 84.2928 243.756 55.884 295.554C33.8628 335.707 36.7992 387.168 49.0836 430.575C62.4324 477.743 85.9236 510.685 123.5 535.726C165.626 563.799 210.682 556.004 256.216 546.235C276.694 541.842 297.806 537.36 318.745 539.036C344.96 541.136 370.842 549.593 396.851 553.704C423.899 557.979 451.963 558.99 478.019 549.673C561.461 519.837 581.23 380.021 546.916 299.929C534.769 271.579 514.184 249.707 495.068 227.516C474.434 203.561 461.786 180.117 448.325 150.379Z" fill="white"/>
<path d="M500.788 121.121C523.53 121.121 541.967 102.101 541.967 78.6378C541.967 55.1749 523.53 36.1546 500.788 36.1546C478.045 36.1546 459.608 55.1749 459.608 78.6378C459.608 102.101 478.045 121.121 500.788 121.121Z" fill="#92E3A9"/>
<path d="M509.736 128.239C509.736 128.239 505.666 106.545 487.351 98.8469C469.037 91.149 457.504 100.947 454.79 107.945C452.077 114.943 451.399 126.841 441.223 121.942C431.047 117.043 426.978 111.445 414.089 117.043C401.201 122.641 405.27 134.538 395.773 136.638C386.276 138.738 389.669 133.139 379.493 134.538C369.318 135.939 369.996 142.236 367.283 145.736C364.57 149.235 364.57 146.436 355.073 147.836C345.576 149.236 339.47 155.534 339.47 155.534H549.078C549.078 155.534 554.504 144.336 540.259 135.939C526.016 127.54 513.806 136.638 509.736 128.239Z" fill="white" stroke="#ADADAD" stroke-miterlimit="10" stroke-linecap="round" stroke-linejoin="round"/>
<path d="M129.266 182.45C129.266 182.45 126.629 168.394 114.763 163.407C102.898 158.419 95.4252 164.768 93.6672 169.301C91.9092 173.835 91.47 181.544 84.8772 178.37C78.2844 175.196 75.648 171.568 67.2972 175.196C58.9464 178.823 61.584 186.531 55.4304 187.891C49.278 189.252 51.4752 185.624 44.8824 186.531C38.2896 187.437 38.73 191.519 36.972 193.785C35.214 196.052 35.214 194.238 29.0616 195.146C22.9092 196.052 18.9528 200.134 18.9528 200.134H154.756C154.756 200.134 158.272 192.879 149.042 187.438C139.814 181.997 131.904 187.891 129.266 182.45Z" fill="white" stroke="#ADADAD" stroke-miterlimit="10" stroke-linecap="round" stroke-linejoin="round"/>
<path d="M524.257 236.631C524.257 236.631 522.745 228.571 515.94 225.711C509.135 222.851 504.851 226.491 503.843 229.091C502.835 231.69 502.583 236.111 498.803 234.29C495.023 232.47 493.511 230.391 488.722 232.47C483.934 234.55 485.446 238.971 481.916 239.751C478.388 240.531 479.648 238.451 475.867 238.971C472.087 239.491 472.339 241.831 471.331 243.131C470.323 244.431 470.323 243.391 466.795 243.911C463.267 244.431 460.998 246.771 460.998 246.771H538.874C538.874 246.771 540.89 242.611 535.598 239.49C530.305 236.371 525.769 239.751 524.257 236.631Z" fill="white" stroke="#ADADAD" stroke-miterlimit="10" stroke-linecap="round" stroke-linejoin="round"/>
<path d="M130.536 318.773L131.669 315.969C131.669 315.969 130.31 315.735 128.951 316.437C127.592 317.137 126.46 317.605 126.46 317.605C126.46 317.605 126.007 317.605 123.289 315.97C120.571 314.334 117.174 313.634 114.229 313.634C111.284 313.634 100.866 315.269 103.357 316.204C105.848 317.138 111.737 316.438 113.096 317.138C114.455 317.839 115.362 319.008 116.494 319.709C117.626 320.409 121.476 321.344 121.476 321.344C121.476 321.344 120.797 322.279 118.985 322.747C117.173 323.215 117.173 323.215 117.173 323.215C117.173 323.215 117.852 326.253 121.476 326.485C125.1 326.719 127.139 326.251 127.139 326.251L126.912 322.981C126.912 322.981 126.912 324.149 132.8 324.383C138.689 324.617 141.407 326.019 141.407 326.019C141.407 326.019 152.052 329.991 151.373 329.289C150.694 328.587 146.164 323.915 143.672 322.981C141.181 322.046 139.142 321.812 136.651 321.345C134.159 320.876 130.536 318.773 130.536 318.773Z" fill="#ADADAD"/>
<path d="M184.186 309.775L185.318 306.971C185.318 306.971 183.96 306.737 182.6 307.437C181.242 308.138 180.109 308.606 180.109 308.606C180.109 308.606 179.657 308.606 176.939 306.971C174.221 305.335 170.824 304.635 167.879 304.635C164.934 304.635 154.516 306.27 157.007 307.205C159.498 308.139 165.386 307.439 166.746 308.139C168.104 308.84 169.01 310.009 170.143 310.71C171.276 311.41 175.126 312.345 175.126 312.345C175.126 312.345 174.446 313.28 172.634 313.746C170.822 314.214 170.822 314.214 170.822 314.214C170.822 314.214 171.502 317.252 175.126 317.485C178.75 317.719 180.787 317.251 180.787 317.251L180.56 313.98C180.56 313.98 180.56 315.149 186.449 315.382C192.337 315.616 195.055 317.017 195.055 317.017C195.055 317.017 205.7 320.99 205.021 320.288C204.342 319.587 199.812 314.914 197.321 313.979C194.83 313.044 192.791 312.81 190.3 312.344C187.81 311.878 184.186 309.775 184.186 309.775Z" fill="#ADADAD"/>
<path d="M194.904 347.916L195.748 345.828C195.748 345.828 194.736 345.653 193.723 346.176C192.712 346.698 191.868 347.046 191.868 347.046C191.868 347.046 191.531 347.046 189.506 345.828C187.482 344.61 184.952 344.088 182.76 344.088C180.568 344.088 172.81 345.307 174.664 346.002C176.519 346.698 180.904 346.177 181.916 346.698C182.928 347.221 183.602 348.09 184.446 348.612C185.29 349.135 188.156 349.83 188.156 349.83C188.156 349.83 187.65 350.526 186.301 350.874C184.952 351.222 184.952 351.222 184.952 351.222C184.952 351.222 185.459 353.484 188.158 353.658C190.856 353.833 192.374 353.484 192.374 353.484L192.205 351.047C192.205 351.047 192.205 351.918 196.59 352.091C200.975 352.265 202.999 353.309 202.999 353.309C202.999 353.309 210.926 356.267 210.42 355.745C209.914 355.223 206.54 351.743 204.685 351.047C202.83 350.352 201.312 350.177 199.457 349.829C197.603 349.482 194.904 347.916 194.904 347.916Z" fill="#ADADAD"/>
<path d="M159.979 352.653C159.979 352.653 160.206 350.784 161.112 349.849C162.018 348.914 163.376 348.213 162.018 346.11C160.66 344.007 150.241 337.465 151.373 339.801C152.506 342.137 156.582 344.475 155.903 346.578C155.224 348.681 154.252 350.069 153.412 350.551C151.373 351.719 151.373 351.719 151.373 351.719C151.373 351.719 150.694 351.019 148.882 351.019C147.07 351.019 148.655 350.551 147.07 351.019C145.484 351.487 143.446 352.187 144.352 354.524C145.258 356.86 145.484 357.794 146.843 356.86C148.201 355.925 149.107 355.457 150.694 354.99C152.279 354.522 154.318 356.392 155.45 358.028C156.583 359.664 158.168 358.963 155.45 361.767C152.732 364.571 150.241 366.441 151.826 366.675C153.412 366.909 161.792 361.3 162.472 359.431C163.151 357.562 160.66 356.627 161.112 355.926C161.566 355.226 162.924 354.758 163.603 354.992L165.868 355.226C165.868 355.226 164.508 352.421 162.923 352.421C161.338 352.42 159.979 352.653 159.979 352.653Z" fill="#ADADAD"/>
<path d="M579.3 371.948H33.8748V435.093H579.3V371.948Z" fill="#92E3A9"/>
<path d="M25.8372 372.536H590.544" stroke="#263238" stroke-miterlimit="10"/>
<path d="M34.32 435.312C34.32 435.312 44.1336 426.201 75.6444 427.569C107.155 428.937 112.933 433.723 133.94 433.723C154.948 433.723 175.236 423.146 188.035 426.885C200.833 430.623 224.273 439.194 240.554 433.723C256.835 428.253 273.641 430.304 284.146 431.672C294.649 433.04 325.636 435.775 342.967 435.091C360.299 434.408 390.76 420.731 413.868 423.465C436.976 426.201 448.006 433.723 456.408 431.672C464.812 429.621 466.386 424.833 477.415 426.201C488.444 427.569 499.474 433.04 512.077 433.723C524.682 434.407 531.509 428.253 548.84 428.253C566.172 428.253 579.301 435.091 579.301 435.091L34.32 435.312Z" fill="white"/>
<path d="M63.2544 380.727H109.2" stroke="#263238" stroke-width="0.5" stroke-miterlimit="10"/>
<path d="M103.544 384.322H133.939" stroke="#263238" stroke-width="0.5" stroke-miterlimit="10"/>
<path d="M42.7548 386.839H69.6156" stroke="#263238" stroke-width="0.5" stroke-miterlimit="10"/>
<path d="M164.334 380.008H186.247" stroke="#263238" stroke-width="0.5" stroke-miterlimit="10"/>
<path d="M143.836 385.042H150.904" stroke="#263238" stroke-width="0.5" stroke-miterlimit="10"/>
<path d="M90.8208 387.199H107.078" stroke="#263238" stroke-width="0.5" stroke-miterlimit="10"/>
<path d="M186.954 388.637H237.14" stroke="#263238" stroke-width="0.5" stroke-miterlimit="10"/>
<path d="M195.436 380.368H222.296" stroke="#263238" stroke-width="0.5" stroke-miterlimit="10"/>
<path d="M172.11 388.997H178.471" stroke="#263238" stroke-width="0.5" stroke-miterlimit="10"/>
<path d="M242.088 381.805H259.759" stroke="#263238" stroke-width="0.5" stroke-miterlimit="10"/>
<path d="M262.586 385.761H291.568" stroke="#263238" stroke-width="0.5" stroke-miterlimit="10"/>
<path d="M331.152 380.727H377.098" stroke="#263238" stroke-width="0.5" stroke-miterlimit="10"/>
<path d="M371.443 384.322H401.838" stroke="#263238" stroke-width="0.5" stroke-miterlimit="10"/>
<path d="M310.654 386.839H337.513" stroke="#263238" stroke-width="0.5" stroke-miterlimit="10"/>
<path d="M432.232 380.008H454.145" stroke="#263238" stroke-width="0.5" stroke-miterlimit="10"/>
<path d="M411.733 385.042H418.802" stroke="#263238" stroke-width="0.5" stroke-miterlimit="10"/>
<path d="M358.72 387.199H374.977" stroke="#263238" stroke-width="0.5" stroke-miterlimit="10"/>
<path d="M454.852 388.637H505.038" stroke="#263238" stroke-width="0.5" stroke-miterlimit="10"/>
<path d="M463.333 380.368H490.194" stroke="#263238" stroke-width="0.5" stroke-miterlimit="10"/>
<path d="M440.008 388.997H446.369" stroke="#263238" stroke-width="0.5" stroke-miterlimit="10"/>
<path d="M509.987 381.805H527.658" stroke="#263238" stroke-width="0.5" stroke-miterlimit="10"/>
<path d="M530.485 385.761H559.466" stroke="#263238" stroke-width="0.5" stroke-miterlimit="10"/>
<path d="M63.2544 402.682H109.2" stroke="#263238" stroke-width="0.5" stroke-miterlimit="10"/>
<path d="M103.544 412.119H133.939" stroke="#263238" stroke-width="0.5" stroke-miterlimit="10"/>
<path d="M42.7548 418.726H69.6156" stroke="#263238" stroke-width="0.5" stroke-miterlimit="10"/>
<path d="M164.334 400.794H186.247" stroke="#263238" stroke-width="0.5" stroke-miterlimit="10"/>
<path d="M143.836 414.007H150.904" stroke="#263238" stroke-width="0.5" stroke-miterlimit="10"/>
<path d="M90.8208 419.67H107.078" stroke="#263238" stroke-width="0.5" stroke-miterlimit="10"/>
<path d="M186.954 423.445H237.14" stroke="#263238" stroke-width="0.5" stroke-miterlimit="10"/>
<path d="M195.436 401.737H222.296" stroke="#263238" stroke-width="0.5" stroke-miterlimit="10"/>
<path d="M172.11 424.389H178.471" stroke="#263238" stroke-width="0.5" stroke-miterlimit="10"/>
<path d="M242.088 405.513H259.759" stroke="#263238" stroke-width="0.5" stroke-miterlimit="10"/>
<path d="M262.586 415.895H291.568" stroke="#263238" stroke-width="0.5" stroke-miterlimit="10"/>
<path d="M331.152 402.682H377.098" stroke="#263238" stroke-width="0.5" stroke-miterlimit="10"/>
<path d="M371.443 412.119H401.838" stroke="#263238" stroke-width="0.5" stroke-miterlimit="10"/>
<path d="M310.654 418.726H337.513" stroke="#263238" stroke-width="0.5" stroke-miterlimit="10"/>
<path d="M432.232 400.794H454.145" stroke="#263238" stroke-width="0.5" stroke-miterlimit="10"/>
<path d="M411.733 414.007H418.802" stroke="#263238" stroke-width="0.5" stroke-miterlimit="10"/>
<path d="M358.72 419.67H374.977" stroke="#263238" stroke-width="0.5" stroke-miterlimit="10"/>
<path d="M454.852 423.445H505.038" stroke="#263238" stroke-width="0.5" stroke-miterlimit="10"/>
<path d="M463.333 401.737H490.194" stroke="#263238" stroke-width="0.5" stroke-miterlimit="10"/>
<path d="M440.008 424.389H446.369" stroke="#263238" stroke-width="0.5" stroke-miterlimit="10"/>
<path d="M509.987 405.513H527.658" stroke="#263238" stroke-width="0.5" stroke-miterlimit="10"/>
<path d="M530.485 415.895H559.466" stroke="#263238" stroke-width="0.5" stroke-miterlimit="10"/>
<path d="M27.5076 435.625H587.202" stroke="#263238" stroke-miterlimit="10"/>
<path d="M24.7488 543.866C24.7488 543.866 50.3472 543.866 67.716 542.994C85.086 542.123 109.77 542.994 123.482 542.994C137.195 542.994 258.497 542.124 277.984 544.739C297.47 547.352 299.051 541.848 322.78 542.994C346.508 544.142 409.63 538.634 436.141 542.994C462.653 547.354 503.792 541.25 521.162 542.123C538.532 542.994 571.444 542.123 579.672 544.739" stroke="#263238" stroke-miterlimit="10"/>
<path d="M470.645 553.043C460.19 555.976 452.81 555.976 443.586 556.563C434.362 557.15 427.596 557.736 427.596 557.736" stroke="#263238" stroke-miterlimit="10"/>
<path d="M494.628 551.869C494.628 551.869 484.847 550.597 475.49 552.019" stroke="#263238" stroke-miterlimit="10"/>
<path d="M424 564.751C441.976 567.245 468.238 567.637 473.105 567.12" stroke="#263238" stroke-miterlimit="10"/>
<path d="M372.863 564.774C372.863 564.774 399.922 560.082 417.142 563.601" stroke="#263238" stroke-miterlimit="10"/>
<path d="M215.398 558.995C209.615 559.151 201.701 558.929 191.446 557.736C166.231 554.804 160.082 557.15 150.242 558.91C140.402 560.669 126.258 560.669 126.258 560.669" stroke="#263238" stroke-miterlimit="10"/>
<path d="M227.729 557.735C227.729 557.735 225.54 558.314 220.891 558.701" stroke="#263238" stroke-miterlimit="10"/>
<path d="M61.5684 550.664C66.9444 549.73 73.8912 548.937 81.9804 548.937C101.659 548.937 113.959 553.043 123.799 553.043C133.639 553.043 139.174 552.456 139.174 552.456" stroke="#263238" stroke-miterlimit="10"/>
<path d="M49.3872 553.63C49.3872 553.63 51.912 552.713 56.43 551.689" stroke="#263238" stroke-miterlimit="10"/>
<path d="M282.353 574.834C276.56 575.989 270.818 576.904 266.473 577.092C252.943 577.679 237.569 575.919 217.89 575.333C198.211 574.746 192.676 575.92 192.676 575.92" stroke="#263238" stroke-miterlimit="10"/>
<path d="M307.061 568.88C307.061 568.88 299.081 571.128 289.621 573.277" stroke="#263238" stroke-miterlimit="10"/>
<path d="M357.528 553.08C360.564 553.411 363.793 553.63 367.33 553.63C381.474 553.63 398.693 551.284 398.693 551.284" stroke="#263238" stroke-miterlimit="10"/>
<path d="M298.452 553.63C298.452 553.63 320.591 550.11 332.275 550.11C339.43 550.11 345.661 551.43 352.664 552.453" stroke="#263238" stroke-miterlimit="10"/>
<path d="M544.52 561.754C551.192 562.134 555.511 562.428 555.511 562.428" stroke="#263238" stroke-miterlimit="10"/>
<path d="M505.698 561.842C505.698 561.842 523.532 560.668 535.217 561.255C536.713 561.33 538.159 561.404 539.543 561.479" stroke="#263238" stroke-miterlimit="10"/>
<path d="M491.958 90.4446H484.351V542.121H491.958V90.4446Z" fill="white" stroke="#263238" stroke-miterlimit="10"/>
<path d="M113.309 90.4446H105.702V542.121H113.309V90.4446Z" fill="white" stroke="#263238" stroke-miterlimit="10"/>
<path d="M370.25 103.524C370.25 103.524 293.338 130.555 251.077 127.067C208.817 123.58 108.893 100.632 108.893 100.632C108.893 100.632 220.65 176.769 265.445 166.306C310.241 155.842 383.773 105.268 383.773 105.268L370.25 103.524Z" fill="white" stroke="#263238" stroke-miterlimit="10"/>
<path d="M207.424 147.552C195.706 143.576 191.191 141.506 191.191 141.506" stroke="#263238" stroke-miterlimit="10"/>
<path d="M365.639 107.721C365.639 107.721 350.525 120.715 315.257 136.959C279.989 153.201 269.284 166.197 235.904 156.45C226.639 153.745 219.072 151.39 212.975 149.399" stroke="#263238" stroke-miterlimit="10"/>
<path d="M273.238 140.315C259.146 142.52 253.54 140.206 253.54 140.206" stroke="#263238" stroke-miterlimit="10"/>
<path d="M358.081 108.371C358.081 108.371 313.367 129.812 288.176 136.959C285.176 137.81 282.4 138.504 279.835 139.067" stroke="#263238" stroke-miterlimit="10"/>
<path d="M85.7285 102.67V109.61L501.789 109.61V102.67L85.7285 102.67Z" fill="white" stroke="#263238" stroke-miterlimit="10"/>
<path d="M491.113 96.5479C491.113 96.5479 458.042 160.274 446.316 199.444C436.163 233.365 431.958 283.617 448.982 315.887C460.334 337.405 475.213 356.904 489.422 376.449C491.958 379.936 478.435 332.85 475.054 288.38C471.673 243.91 475.054 208.159 480.97 170.664C486.887 133.17 491.113 96.5479 491.113 96.5479Z" fill="white" stroke="#263238" stroke-miterlimit="10"/>
<path d="M459.923 196.648C459.26 199.452 458.665 202.137 458.15 204.671" stroke="#263238" stroke-miterlimit="10"/>
<path d="M491.113 96.5479C491.113 96.5479 471.19 152.045 461.366 190.766" stroke="#263238" stroke-miterlimit="10"/>
<path d="M464.747 264.287C464.78 266.751 464.834 269.26 464.911 271.814" stroke="#263238" stroke-miterlimit="10"/>
<path d="M472.519 181.128C472.519 181.128 464.626 210.742 464.707 259.056" stroke="#263238" stroke-miterlimit="10"/>
<path d="M103.022 132.41C103.022 132.41 107.431 146.704 118.136 175.292C128.843 203.88 132.622 231.818 123.804 270.151C114.988 308.485 99.8724 305.886 88.5372 342.92C77.202 379.953 102.392 421.535 102.392 421.535C102.392 421.535 58.938 372.156 62.7168 328.626C66.4956 285.095 102.392 248.061 106.171 207.778C109.95 167.495 98.6136 138.907 103.022 132.41Z" fill="white" stroke="#263238" stroke-miterlimit="10"/>
<path d="M98.3244 271.404C95.58 276.076 93.576 278.597 93.576 278.597" stroke="#263238" stroke-miterlimit="10"/>
<path d="M104.314 142.913C104.314 142.913 113.729 175.292 113.729 214.274C113.729 237.088 106.826 255.229 101.101 266.352" stroke="#263238" stroke-miterlimit="10"/>
<path d="M69.0732 120.769C69.0732 120.769 74.8872 122.4 85.4772 114.276C85.4772 114.276 76.4892 111.166 69.0732 120.769Z" fill="#92E3A9"/>
<path d="M64.986 127.384C64.986 127.384 70.8 129.014 81.39 120.891C81.39 120.891 72.402 117.781 64.986 127.384Z" fill="#92E3A9"/>
<path d="M64.2588 138.033C64.2588 138.033 70.2828 138.001 78.3828 127.253C78.3828 127.253 68.916 126.734 64.2588 138.033Z" fill="#92E3A9"/>
<path d="M86.208 142.526C86.208 142.526 87.5952 136.477 79.3752 125.827C79.3752 125.827 76.6596 135.197 86.208 142.526Z" fill="#92E3A9"/>
<path d="M92.016 128.936C92.016 128.936 93.4032 122.888 85.1832 112.237C85.1832 112.237 82.4676 121.608 92.016 128.936Z" fill="white" stroke="#263238" stroke-miterlimit="10" stroke-linecap="round" stroke-linejoin="round"/>
<path d="M88.812 134.438C88.812 134.438 90.1992 128.391 81.9804 117.739C81.9804 117.739 79.2636 127.11 88.812 134.438Z" fill="#92E3A9"/>
<path d="M86.148 80.3301C86.148 80.3301 84.7632 86.379 92.9892 97.0258C92.9892 97.0258 95.7012 87.6541 86.148 80.3301Z" fill="#92E3A9"/>
<path d="M79.6032 76.3388C79.6032 76.3388 78.2184 82.3877 86.4444 93.0345C86.4444 93.0345 89.1552 83.6616 79.6032 76.3388Z" fill="#92E3A9"/>
<path d="M69.2616 75.9464C69.2616 75.9464 69.4956 82.1574 80.1804 90.1474C80.1804 90.1474 80.364 80.3685 69.2616 75.9464Z" fill="#92E3A9"/>
<path d="M65.6472 98.728C65.6472 98.728 71.5536 99.9561 81.5952 91.123C81.5952 91.123 72.426 88.6371 65.6472 98.728Z" fill="#92E3A9"/>
<path d="M79.0068 104.259C79.0068 104.259 84.9132 105.488 94.9548 96.6544C94.9548 96.6544 85.7856 94.1685 79.0068 104.259Z" fill="white" stroke="#263238" stroke-miterlimit="10" stroke-linecap="round" stroke-linejoin="round"/>
<path d="M73.5696 101.142C73.5696 101.142 79.476 102.37 89.5176 93.5371C89.5176 93.5371 80.3484 91.0512 73.5696 101.142Z" fill="#92E3A9"/>
<path d="M153.492 139.292C153.492 139.292 153.75 133.083 143.732 124.221C143.732 124.221 142.776 133.952 153.492 139.292Z" fill="white" stroke="#263238" stroke-miterlimit="10" stroke-linecap="round" stroke-linejoin="round"/>
<path d="M160.649 141.944C160.649 141.944 160.907 135.734 150.889 126.873C150.889 126.873 149.933 136.603 160.649 141.944Z" fill="#92E3A9"/>
<path d="M170.876 140.325C170.876 140.325 169.516 134.27 157.566 128.495C157.566 128.495 159.167 138.135 170.876 140.325Z" fill="#92E3A9"/>
<path d="M170.278 117.247C170.278 117.247 164.254 117.187 155.999 127.809C155.999 127.809 165.457 128.473 170.278 117.247Z" fill="#92E3A9"/>
<path d="M156.148 114.405C156.148 114.405 150.124 114.344 141.869 124.966C141.869 124.966 151.327 125.631 156.148 114.405Z" fill="#92E3A9"/>
<path d="M162.056 116.413C162.056 116.413 156.032 116.352 147.778 126.974C147.778 126.974 157.236 127.639 162.056 116.413Z" fill="#92E3A9"/>
<path d="M150.926 116.653C150.926 116.653 151.315 107.295 136.218 93.9394C136.218 93.9394 134.777 108.605 150.926 116.653Z" fill="#92E3A9"/>
<path d="M161.711 120.651C161.711 120.651 162.1 111.292 147.002 97.937C147.002 97.937 145.561 112.601 161.711 120.651Z" fill="#92E3A9"/>
<path d="M177.125 118.209C177.125 118.209 175.074 109.084 157.066 100.38C157.066 100.38 159.478 114.907 177.125 118.209Z" fill="#92E3A9"/>
<path d="M176.222 83.4313C176.222 83.4313 167.143 83.3397 154.704 99.3483C154.704 99.3483 168.958 100.349 176.222 83.4313Z" fill="#92E3A9"/>
<path d="M154.928 79.1466C154.928 79.1466 145.849 79.055 133.41 95.0636C133.41 95.0636 147.664 96.0639 154.928 79.1466Z" fill="#92E3A9"/>
<path d="M163.832 82.1735C163.832 82.1735 154.753 82.0819 142.314 98.0905C142.314 98.0905 156.569 99.0908 163.832 82.1735Z" fill="#92E3A9"/>
<path d="M122.467 158.613C122.467 158.613 129.644 152.877 129.782 132.36C129.782 132.36 117.997 140.694 122.467 158.613Z" fill="#92E3A9"/>
<path d="M126.473 169.69C126.473 169.69 133.65 163.955 133.788 143.437C133.788 143.437 122.003 151.77 126.473 169.69Z" fill="#92E3A9"/>
<path d="M138.232 180.257C138.232 180.257 143.662 172.749 138.476 152.941C138.476 152.941 129.281 164.223 138.232 180.257Z" fill="#92E3A9"/>
<path d="M163.391 157.09C163.391 157.09 157.596 149.878 137.716 150.416C137.716 150.416 146.179 162.291 163.391 157.09Z" fill="#92E3A9"/>
<path d="M152.813 137.548C152.813 137.548 147.018 130.337 127.138 130.873C127.138 130.873 135.6 142.75 152.813 137.548Z" fill="white" stroke="#263238" stroke-miterlimit="10" stroke-linecap="round" stroke-linejoin="round"/>
<path d="M156.322 146.517C156.322 146.517 150.527 139.306 130.646 139.842C130.646 139.842 139.11 151.718 156.322 146.517Z" fill="#92E3A9"/>
<path d="M88.1316 136.914C88.1316 136.914 97.086 138.465 111.792 124.653C111.792 124.653 97.8636 121.371 88.1316 136.914Z" fill="#92E3A9"/>
<path d="M82.9596 147.463C82.9596 147.463 91.914 149.014 106.62 135.202C106.62 135.202 92.6916 131.921 82.9596 147.463Z" fill="#92E3A9"/>
<path d="M83.4084 163.545C83.4084 163.545 92.4384 162.569 103.031 145.204C103.031 145.204 88.758 145.883 83.4084 163.545Z" fill="#92E3A9"/>
<path d="M116.974 166.905C116.974 166.905 118.181 157.621 104.314 142.913C104.314 142.913 101.596 157.384 116.974 166.905Z" fill="#92E3A9"/>
<path d="M123.718 145.632C123.718 145.632 124.925 136.348 111.058 121.641C111.058 121.641 108.34 136.111 123.718 145.632Z" fill="white" stroke="#263238" stroke-miterlimit="10" stroke-linecap="round" stroke-linejoin="round"/>
<path d="M119.71 154.375C119.71 154.375 120.916 145.091 107.05 130.384C107.05 130.384 104.332 144.855 119.71 154.375Z" fill="#92E3A9"/>
<path d="M77.9196 96.278C77.9196 96.278 74.6076 97.5482 75.1176 99.5823C75.6264 101.616 74.3532 102.378 73.3344 103.14C72.3156 103.903 71.5512 106.953 71.5512 106.953C71.5512 106.953 72.8256 108.479 71.8056 109.241C70.7868 110.004 69.258 112.799 69.258 113.562C69.258 114.324 71.0412 114.578 71.2968 115.595C71.5512 116.611 70.5324 117.629 71.2968 119.153C72.0612 120.678 75.1188 120.678 75.3732 121.44C75.6276 122.203 75.3732 124.236 77.6664 125.253C79.9596 126.27 82.2528 125 82.2528 125C82.2528 125 83.5272 126.525 84.8004 126.779C86.0736 127.032 87.348 124.491 88.1124 124.491C88.8768 124.491 89.3868 124.237 91.4244 124.491C93.462 124.745 93.7176 123.221 94.2264 122.203C94.7364 121.187 97.0284 121.694 97.7928 119.915C98.5572 118.136 97.0284 114.069 97.0284 114.069C97.0284 114.069 97.2828 112.798 98.5572 111.274C99.8316 109.749 97.7928 106.953 97.7928 106.953C97.7928 106.953 96.5196 106.191 96.5196 104.412C96.5196 102.633 94.9908 101.616 93.7176 102.124C92.4444 102.631 91.17 99.0734 91.17 99.0734C91.17 99.0734 89.1288 96.7856 87.6012 97.802C86.0724 98.8184 84.7992 97.5482 84.7992 97.5482C84.7992 97.5482 83.7804 95.2604 82.506 96.5318C81.2316 97.8032 81.2316 97.802 81.2316 97.802C81.2316 97.802 79.9572 95.0066 77.9196 96.278Z" fill="white" stroke="#263238" stroke-miterlimit="10" stroke-linecap="round" stroke-linejoin="round"/>
<path d="M88.62 111.665C88.62 113.915 86.8524 115.739 84.6708 115.739C82.4892 115.739 80.7216 113.916 80.7216 111.665C80.7216 109.414 82.4892 107.591 84.6708 107.591C86.8512 107.591 88.62 109.414 88.62 111.665Z" fill="#92E3A9" stroke="#263238" stroke-miterlimit="10" stroke-linecap="round" stroke-linejoin="round"/>
<path d="M83.7792 107.328L82.7604 100.495" stroke="#263238" stroke-miterlimit="10" stroke-linecap="round" stroke-linejoin="round"/>
<path d="M87.3456 108.906L90.1488 103.912" stroke="#263238" stroke-miterlimit="10" stroke-linecap="round" stroke-linejoin="round"/>
<path d="M88.62 113.9L93.9696 118.368" stroke="#263238" stroke-miterlimit="10" stroke-linecap="round" stroke-linejoin="round"/>
<path d="M81.7404 114.687L78.684 120.996" stroke="#263238" stroke-miterlimit="10" stroke-linecap="round" stroke-linejoin="round"/>
<path d="M81.2316 110.219L75.372 107.853" stroke="#263238" stroke-miterlimit="10" stroke-linecap="round" stroke-linejoin="round"/>
<path d="M84.6708 115.739L85.5624 121.258" stroke="#263238" stroke-miterlimit="10" stroke-linecap="round" stroke-linejoin="round"/>
<path d="M82.5048 108.117L78.9384 101.283" stroke="#263238" stroke-miterlimit="10" stroke-linecap="round" stroke-linejoin="round"/>
<path d="M80.976 113.374L75.6264 114.951" stroke="#263238" stroke-miterlimit="10" stroke-linecap="round" stroke-linejoin="round"/>
<path d="M88.62 111.665L93.4596 111.008" stroke="#263238" stroke-miterlimit="10" stroke-linecap="round" stroke-linejoin="round"/>
<path d="M86.8368 115.476L88.62 119.419" stroke="#263238" stroke-miterlimit="10" stroke-linecap="round" stroke-linejoin="round"/>
<path d="M104.989 120.714C104.989 120.714 101.677 121.984 102.187 124.018C102.697 126.051 101.423 126.813 100.404 127.576C99.3852 128.339 98.6208 131.389 98.6208 131.389C98.6208 131.389 99.894 132.914 98.8752 133.677C97.8564 134.439 96.3276 137.235 96.3276 137.997C96.3276 138.76 98.1108 139.014 98.3664 140.031C98.6208 141.048 97.602 142.065 98.3664 143.589C99.1308 145.115 102.188 145.115 102.443 145.877C102.697 146.64 102.443 148.673 104.736 149.69C107.029 150.707 109.322 149.437 109.322 149.437C109.322 149.437 110.597 150.962 111.87 151.216C113.144 151.469 114.418 148.928 115.182 148.928C115.946 148.928 116.456 148.674 118.494 148.928C120.532 149.181 120.787 147.656 121.296 146.64C121.806 145.623 124.098 146.131 124.862 144.352C125.627 142.573 124.098 138.506 124.098 138.506C124.098 138.506 124.352 137.235 125.627 135.711C126.901 134.186 124.862 131.39 124.862 131.39C124.862 131.39 123.588 130.628 123.588 128.849C123.588 127.07 122.059 126.053 120.785 126.561C119.512 127.07 118.237 123.51 118.237 123.51C118.237 123.51 116.2 121.222 114.671 122.239C113.142 123.255 111.868 121.985 111.868 121.985C111.868 121.985 110.849 119.697 109.574 120.969C108.3 122.239 108.3 122.239 108.3 122.239C108.3 122.239 107.027 119.442 104.989 120.714Z" fill="white" stroke="#263238" stroke-miterlimit="10" stroke-linecap="round" stroke-linejoin="round"/>
<path d="M115.69 136.101C115.69 138.35 113.922 140.175 111.74 140.175C109.56 140.175 107.791 138.351 107.791 136.101C107.791 133.851 109.559 132.027 111.74 132.027C113.922 132.028 115.69 133.851 115.69 136.101Z" fill="#92E3A9" stroke="#263238" stroke-miterlimit="10" stroke-linecap="round" stroke-linejoin="round"/>
<path d="M110.849 131.764L109.83 124.93" stroke="#263238" stroke-miterlimit="10" stroke-linecap="round" stroke-linejoin="round"/>
<path d="M114.415 133.341L117.218 128.347" stroke="#263238" stroke-miterlimit="10" stroke-linecap="round" stroke-linejoin="round"/>
<path d="M115.69 138.335L121.04 142.803" stroke="#263238" stroke-miterlimit="10" stroke-linecap="round" stroke-linejoin="round"/>
<path d="M108.811 139.124L105.754 145.432" stroke="#263238" stroke-miterlimit="10" stroke-linecap="round" stroke-linejoin="round"/>
<path d="M108.301 134.656L102.442 132.29" stroke="#263238" stroke-miterlimit="10" stroke-linecap="round" stroke-linejoin="round"/>
<path d="M111.74 140.175L112.632 145.695" stroke="#263238" stroke-miterlimit="10" stroke-linecap="round" stroke-linejoin="round"/>
<path d="M109.576 132.553L106.008 125.719" stroke="#263238" stroke-miterlimit="10" stroke-linecap="round" stroke-linejoin="round"/>
<path d="M108.047 137.809L102.696 139.386" stroke="#263238" stroke-miterlimit="10" stroke-linecap="round" stroke-linejoin="round"/>
<path d="M115.69 136.101L120.53 135.445" stroke="#263238" stroke-miterlimit="10" stroke-linecap="round" stroke-linejoin="round"/>
<path d="M113.906 139.913L115.69 143.854" stroke="#263238" stroke-miterlimit="10" stroke-linecap="round" stroke-linejoin="round"/>
<path d="M108.724 64.1519C108.724 64.1519 103.986 67.9922 103.986 81.6065C103.986 81.6065 111.769 76.0206 108.724 64.1519Z" fill="#92E3A9"/>
<path d="M106.016 56.8205C106.016 56.8205 101.279 60.6608 101.279 74.2751C101.279 74.2751 109.062 68.6904 106.016 56.8205Z" fill="#92E3A9"/>
<path d="M98.1672 49.8642C98.1672 49.8642 94.5972 54.8706 98.1252 67.9897C98.1252 67.9897 104.177 60.4614 98.1672 49.8642Z" fill="#92E3A9"/>
<path d="M81.576 65.3565C81.576 65.3565 85.452 70.1141 98.6424 69.6647C98.6424 69.6647 92.9736 61.8233 81.576 65.3565Z" fill="#92E3A9"/>
<path d="M88.6812 78.2726C88.6812 78.2726 92.5572 83.0302 105.748 82.5796C105.748 82.5796 100.079 74.7393 88.6812 78.2726Z" fill="#92E3A9"/>
<path d="M86.3124 72.3376C86.3124 72.3376 90.1884 77.0952 103.379 76.6458C103.379 76.6458 97.71 68.8056 86.3124 72.3376Z" fill="#92E3A9"/>
<path d="M86.3304 124.61C86.3304 124.61 92.1432 126.24 102.734 118.116C102.734 118.116 93.7452 115.005 86.3304 124.61Z" fill="#92E3A9"/>
<path d="M82.2432 131.224C82.2432 131.224 88.0572 132.855 98.6472 124.731C98.6472 124.731 89.658 121.621 82.2432 131.224Z" fill="#92E3A9"/>
<path d="M81.516 141.874C81.516 141.874 87.5412 141.841 95.64 131.093C95.64 131.093 86.1732 130.574 81.516 141.874Z" fill="#92E3A9"/>
<path d="M103.465 146.366C103.465 146.366 104.852 140.319 96.6336 129.667C96.6336 129.667 93.9168 139.037 103.465 146.366Z" fill="#92E3A9"/>
<path d="M109.273 132.777C109.273 132.777 110.66 126.729 102.44 116.077C102.44 116.077 99.7236 125.448 109.273 132.777Z" fill="#92E3A9"/>
<path d="M106.069 138.278C106.069 138.278 107.456 132.23 99.2364 121.579C99.2364 121.579 96.5208 130.949 106.069 138.278Z" fill="#92E3A9"/>
<path d="M132.184 78.5004C132.184 78.5004 126.167 78.1909 117.508 88.465C117.508 88.465 126.934 89.5186 132.184 78.5004Z" fill="white" stroke="#263238" stroke-miterlimit="10" stroke-linecap="round" stroke-linejoin="round"/>
<path d="M134.803 71.1355C134.803 71.1355 128.786 70.826 120.127 81.1002C120.127 81.1002 129.553 82.1537 134.803 71.1355Z" fill="#92E3A9"/>
<path d="M133.304 60.5729C133.304 60.5729 127.427 61.9347 121.745 74.2231C121.745 74.2231 131.1 72.6384 133.304 60.5729Z" fill="#92E3A9"/>
<path d="M110.932 61.0322C110.932 61.0322 110.831 67.2469 121.07 75.8349C121.07 75.8349 121.78 66.082 110.932 61.0322Z" fill="#92E3A9"/>
<path d="M108.079 75.5886C108.079 75.5886 107.978 81.8033 118.218 90.3913C118.218 90.3913 118.927 80.6384 108.079 75.5886Z" fill="#92E3A9"/>
<path d="M110.066 69.5075C110.066 69.5075 109.966 75.7223 120.205 84.3103C120.205 84.3103 120.913 74.5573 110.066 69.5075Z" fill="#92E3A9"/>
<path d="M99.9252 80.1952C99.9252 80.1952 95.526 81.8825 96.2028 84.5839C96.8796 87.2852 95.1876 88.2966 93.834 89.3105C92.4804 90.3232 91.4652 94.374 91.4652 94.374C91.4652 94.374 93.1572 96.3993 91.8036 97.412C90.45 98.4247 88.4196 102.139 88.4196 103.151C88.4196 104.164 90.7884 104.502 91.1268 105.851C91.4652 107.202 90.1116 108.552 91.1268 110.578C92.142 112.604 96.2028 112.604 96.5412 113.616C96.8796 114.629 96.5412 117.33 99.5868 118.68C102.632 120.03 105.678 118.342 105.678 118.342C105.678 118.342 107.37 120.367 109.062 120.705C110.754 121.043 112.446 117.667 113.461 117.667C114.476 117.667 115.153 117.329 117.86 117.667C120.568 118.005 120.906 115.98 121.583 114.629C122.26 113.278 125.305 113.954 126.32 111.591C127.336 109.227 125.305 103.826 125.305 103.826C125.305 103.826 125.644 102.137 127.336 100.112C129.028 98.0867 126.32 94.3727 126.32 94.3727C126.32 94.3727 124.628 93.36 124.628 90.9967C124.628 88.6334 122.598 87.284 120.906 87.9587C119.214 88.6334 117.522 83.9079 117.522 83.9079C117.522 83.9079 114.815 80.8699 112.784 82.2205C110.754 83.5712 109.062 81.8826 109.062 81.8826C109.062 81.8826 107.708 78.8445 106.016 80.5319C104.324 82.2205 104.324 82.2205 104.324 82.2205C104.324 82.2205 102.632 78.5065 99.9252 80.1952Z" fill="white" stroke="#263238" stroke-miterlimit="10" stroke-linecap="round" stroke-linejoin="round"/>
<path d="M114.137 100.632C114.137 103.621 111.788 106.043 108.892 106.043C105.995 106.043 103.646 103.621 103.646 100.632C103.646 97.6435 105.995 95.2208 108.892 95.2208C111.79 95.2208 114.137 97.6435 114.137 100.632Z" fill="#92E3A9" stroke="#263238" stroke-miterlimit="10" stroke-linecap="round" stroke-linejoin="round"/>
<path d="M107.708 94.8716L106.355 85.7946" stroke="#263238" stroke-miterlimit="10" stroke-linecap="round" stroke-linejoin="round"/>
<path d="M112.445 96.9663L116.167 90.3331" stroke="#263238" stroke-miterlimit="10" stroke-linecap="round" stroke-linejoin="round"/>
<path d="M114.137 103.598L121.243 109.533" stroke="#263238" stroke-miterlimit="10" stroke-linecap="round" stroke-linejoin="round"/>
<path d="M105.001 104.646L100.94 113.024" stroke="#263238" stroke-miterlimit="10" stroke-linecap="round" stroke-linejoin="round"/>
<path d="M104.324 98.7119L96.5412 95.5699" stroke="#263238" stroke-miterlimit="10" stroke-linecap="round" stroke-linejoin="round"/>
<path d="M108.893 106.042L110.077 113.374" stroke="#263238" stroke-miterlimit="10" stroke-linecap="round" stroke-linejoin="round"/>
<path d="M106.016 95.919L101.279 86.842" stroke="#263238" stroke-miterlimit="10" stroke-linecap="round" stroke-linejoin="round"/>
<path d="M103.986 102.9L96.8796 104.995" stroke="#263238" stroke-miterlimit="10" stroke-linecap="round" stroke-linejoin="round"/>
<path d="M114.137 100.632L120.566 99.7593" stroke="#263238" stroke-miterlimit="10" stroke-linecap="round" stroke-linejoin="round"/>
<path d="M111.769 105.693L114.137 110.93" stroke="#263238" stroke-miterlimit="10" stroke-linecap="round" stroke-linejoin="round"/>
<path d="M125.304 105.678C125.304 105.678 120.905 107.367 121.582 110.067C122.258 112.768 120.566 113.781 119.213 114.794C117.859 115.806 116.844 119.857 116.844 119.857C116.844 119.857 118.536 121.882 117.182 122.895C115.829 123.908 113.798 127.622 113.798 128.634C113.798 129.647 116.167 129.985 116.506 131.334C116.844 132.685 115.49 134.036 116.506 136.061C117.521 138.087 121.582 138.087 121.92 139.099C122.258 140.112 121.92 142.813 124.966 144.163C128.011 145.513 131.057 143.825 131.057 143.825C131.057 143.825 132.749 145.85 134.441 146.188C136.133 146.526 137.825 143.15 138.84 143.15C139.855 143.15 140.532 142.812 143.239 143.15C145.946 143.488 146.285 141.461 146.962 140.112C147.638 138.761 150.684 139.437 151.699 137.074C152.714 134.711 150.684 129.309 150.684 129.309C150.684 129.309 151.022 127.622 152.714 125.595C154.406 123.57 151.699 119.856 151.699 119.856C151.699 119.856 150.007 118.843 150.007 116.48C150.007 114.116 147.977 112.767 146.285 113.442C144.593 114.116 142.901 109.391 142.901 109.391C142.901 109.391 140.194 106.353 138.163 107.704C136.133 109.054 134.441 107.366 134.441 107.366C134.441 107.366 133.087 104.328 131.395 106.015C129.703 107.702 129.703 107.702 129.703 107.702C129.703 107.702 128.01 103.991 125.304 105.678Z" fill="white" stroke="#263238" stroke-miterlimit="10" stroke-linecap="round" stroke-linejoin="round"/>
<path d="M139.516 126.115C139.516 129.104 137.167 131.526 134.27 131.526C131.374 131.526 129.025 129.104 129.025 126.115C129.025 123.127 131.374 120.704 134.27 120.704C137.167 120.704 139.516 123.127 139.516 126.115Z" fill="#92E3A9" stroke="#263238" stroke-miterlimit="10" stroke-linecap="round" stroke-linejoin="round"/>
<path d="M133.086 120.355L131.732 111.279" stroke="#263238" stroke-miterlimit="10" stroke-linecap="round" stroke-linejoin="round"/>
<path d="M137.824 122.449L141.546 115.817" stroke="#263238" stroke-miterlimit="10" stroke-linecap="round" stroke-linejoin="round"/>
<path d="M139.516 129.083L146.621 135.018" stroke="#263238" stroke-miterlimit="10" stroke-linecap="round" stroke-linejoin="round"/>
<path d="M130.379 130.13L126.319 138.507" stroke="#263238" stroke-miterlimit="10" stroke-linecap="round" stroke-linejoin="round"/>
<path d="M129.702 124.195L121.92 121.053" stroke="#263238" stroke-miterlimit="10" stroke-linecap="round" stroke-linejoin="round"/>
<path d="M134.27 131.526L135.455 138.857" stroke="#263238" stroke-miterlimit="10" stroke-linecap="round" stroke-linejoin="round"/>
<path d="M131.394 121.402L126.658 112.326" stroke="#263238" stroke-miterlimit="10" stroke-linecap="round" stroke-linejoin="round"/>
<path d="M129.364 128.384L122.258 130.479" stroke="#263238" stroke-miterlimit="10" stroke-linecap="round" stroke-linejoin="round"/>
<path d="M139.516 126.115L145.944 125.242" stroke="#263238" stroke-miterlimit="10" stroke-linecap="round" stroke-linejoin="round"/>
<path d="M137.147 131.177L139.516 136.413" stroke="#263238" stroke-miterlimit="10" stroke-linecap="round" stroke-linejoin="round"/>
<path d="M127.688 75.2952C127.688 75.2952 124.376 76.5666 124.885 78.5994C125.395 80.6334 124.121 81.3948 123.102 82.1586C122.083 82.9213 121.319 85.9717 121.319 85.9717C121.319 85.9717 122.593 87.4969 121.573 88.2595C120.554 89.0221 119.026 91.8175 119.026 92.5801C119.026 93.3427 120.809 93.5965 121.063 94.6142C121.318 95.6306 120.299 96.6482 121.063 98.1722C121.828 99.6974 124.885 99.6974 125.14 100.46C125.394 101.223 125.14 103.255 127.433 104.273C129.726 105.289 132.019 104.019 132.019 104.019C132.019 104.019 133.294 105.544 134.567 105.798C135.841 106.052 137.114 103.51 137.879 103.51C138.643 103.51 139.153 103.257 141.191 103.51C143.23 103.764 143.484 102.239 143.993 101.223C144.503 100.206 146.795 100.714 147.559 98.9348C148.324 97.1558 146.795 93.0889 146.795 93.0889C146.795 93.0889 147.049 91.8175 148.324 90.2923C149.598 88.7671 147.559 85.9717 147.559 85.9717C147.559 85.9717 146.285 85.2091 146.285 83.4301C146.285 81.6511 144.756 80.6347 143.483 81.1422C142.208 81.6511 140.935 78.0918 140.935 78.0918C140.935 78.0918 138.898 75.804 137.369 76.8204C135.84 77.8368 134.567 76.5666 134.567 76.5666C134.567 76.5666 133.548 74.2788 132.274 75.5502C130.999 76.8216 130.999 76.8216 130.999 76.8216C130.999 76.8216 129.726 74.0237 127.688 75.2952Z" fill="white" stroke="#263238" stroke-miterlimit="10" stroke-linecap="round" stroke-linejoin="round"/>
<path d="M138.389 90.6823C138.389 92.933 136.621 94.7565 134.44 94.7565C132.259 94.7565 130.49 92.933 130.49 90.6823C130.49 88.4328 132.258 86.608 134.44 86.608C136.62 86.608 138.389 88.4328 138.389 90.6823Z" fill="#92E3A9" stroke="#263238" stroke-miterlimit="10" stroke-linecap="round" stroke-linejoin="round"/>
<path d="M133.548 86.3456L132.529 79.5118" stroke="#263238" stroke-miterlimit="10" stroke-linecap="round" stroke-linejoin="round"/>
<path d="M137.114 87.9228L139.918 82.9287" stroke="#263238" stroke-miterlimit="10" stroke-linecap="round" stroke-linejoin="round"/>
<path d="M138.389 92.9169L143.738 97.3848" stroke="#263238" stroke-miterlimit="10" stroke-linecap="round" stroke-linejoin="round"/>
<path d="M131.51 93.7055L128.453 100.013" stroke="#263238" stroke-miterlimit="10" stroke-linecap="round" stroke-linejoin="round"/>
<path d="M131 89.2363L125.141 86.8717" stroke="#263238" stroke-miterlimit="10" stroke-linecap="round" stroke-linejoin="round"/>
<path d="M134.44 94.7565L135.331 100.276" stroke="#263238" stroke-miterlimit="10" stroke-linecap="round" stroke-linejoin="round"/>
<path d="M132.275 87.1342L128.707 80.3004" stroke="#263238" stroke-miterlimit="10" stroke-linecap="round" stroke-linejoin="round"/>
<path d="M130.746 92.3907L125.395 93.9679" stroke="#263238" stroke-miterlimit="10" stroke-linecap="round" stroke-linejoin="round"/>
<path d="M138.389 90.6823L143.23 90.0249" stroke="#263238" stroke-miterlimit="10" stroke-linecap="round" stroke-linejoin="round"/>
<path d="M136.606 94.4941L138.389 98.4359" stroke="#263238" stroke-miterlimit="10" stroke-linecap="round" stroke-linejoin="round"/>
<path d="M143.237 69.0383C143.237 70.3877 142.176 71.4821 140.868 71.4821C139.56 71.4821 138.499 70.3877 138.499 69.0383C138.499 67.6889 139.56 66.5945 140.868 66.5945C142.177 66.5957 143.237 67.6889 143.237 69.0383Z" fill="#92E3A9"/>
<path d="M121.243 57.3442C121.243 58.212 120.562 58.9152 119.72 58.9152C118.879 58.9152 118.198 58.212 118.198 57.3442C118.198 56.4763 118.879 55.7731 119.72 55.7731C120.562 55.7731 121.243 56.4763 121.243 57.3442Z" fill="#92E3A9"/>
<path d="M148.651 71.133C148.651 71.9043 148.045 72.5295 147.298 72.5295C146.55 72.5295 145.944 71.9043 145.944 71.133C145.944 70.3617 146.55 69.7365 147.298 69.7365C148.045 69.7365 148.651 70.3617 148.651 71.133Z" fill="#92E3A9"/>
<path d="M133.424 51.9341C133.424 52.5122 132.97 52.9814 132.409 52.9814C131.849 52.9814 131.394 52.5122 131.394 51.9341C131.394 51.356 131.849 50.8867 132.409 50.8867C132.97 50.8867 133.424 51.3547 133.424 51.9341Z" fill="#92E3A9"/>
<path d="M126.658 60.6608C126.658 61.432 126.052 62.0572 125.304 62.0572C124.556 62.0572 123.95 61.432 123.95 60.6608C123.95 59.8895 124.556 59.2643 125.304 59.2643C126.052 59.2643 126.658 59.8895 126.658 60.6608Z" fill="#92E3A9"/>
<path d="M126.658 53.3293C126.658 53.9075 126.203 54.3767 125.642 54.3767C125.082 54.3767 124.627 53.9075 124.627 53.3293C124.627 52.7512 125.082 52.282 125.642 52.282C126.203 52.282 126.658 52.7512 126.658 53.3293Z" fill="#92E3A9"/>
<path d="M63.7188 117.912C63.7188 118.683 63.1128 119.309 62.3652 119.309C61.6176 119.309 61.0116 118.683 61.0116 117.912C61.0116 117.141 61.6176 116.516 62.3652 116.516C63.114 116.516 63.7188 117.141 63.7188 117.912Z" fill="#92E3A9"/>
<path d="M65.7492 110.057C65.7492 111.117 64.9164 111.977 63.888 111.977C62.8596 111.977 62.0268 111.118 62.0268 110.057C62.0268 108.996 62.8596 108.137 63.888 108.137C64.9164 108.137 65.7492 108.996 65.7492 110.057Z" fill="#92E3A9"/>
<path d="M56.2752 114.77C57.2097 114.77 57.9672 113.989 57.9672 113.024C57.9672 112.06 57.2097 111.279 56.2752 111.279C55.3407 111.279 54.5832 112.06 54.5832 113.024C54.5832 113.989 55.3407 114.77 56.2752 114.77Z" fill="#92E3A9"/>
<path d="M152.712 167.657C152.712 168.332 152.182 168.879 151.528 168.879C150.874 168.879 150.343 168.332 150.343 167.657C150.343 166.983 150.874 166.435 151.528 166.435C152.182 166.435 152.712 166.981 152.712 167.657Z" fill="#92E3A9"/>
<path d="M147.298 160.501C147.298 161.272 146.692 161.897 145.944 161.897C145.196 161.897 144.59 161.272 144.59 160.501C144.59 159.729 145.196 159.104 145.944 159.104C146.692 159.104 147.298 159.729 147.298 160.501Z" fill="#92E3A9"/>
<path d="M166.924 146.886C166.924 148.043 166.014 148.981 164.893 148.981C163.772 148.981 162.863 148.044 162.863 146.886C162.863 145.73 163.772 144.792 164.893 144.792C166.015 144.792 166.924 145.729 166.924 146.886Z" fill="#92E3A9"/>
<path d="M465.144 509.896C470.182 509.896 471.442 500.151 475.85 502.099C480.259 504.048 481.518 510.546 487.816 507.298C494.113 504.049 496.632 500.151 496.632 500.151C496.632 500.151 499.781 507.298 504.19 505.348C507.352 503.95 509.212 498.219 510.014 495.084C509.99 482.468 506.706 468.791 505.564 458.889C502.471 432.087 499.38 405.284 496.288 378.483C496.172 377.486 493.89 360.208 494.172 360.143C494.154 360.147 475.862 364.42 475.254 364.563C472.916 365.257 470.291 404.313 469.898 407.452C466.708 433.009 463.517 458.566 460.326 484.125C459.904 487.51 458.177 495.766 457.562 503.928C458.705 505.958 461.401 509.896 465.144 509.896Z" fill="white" stroke="#263238" stroke-miterlimit="10"/>
<path d="M474.264 472.282L480.888 385.15" stroke="#263238" stroke-miterlimit="10"/>
<path d="M473.33 484.557L473.778 478.679" stroke="#263238" stroke-miterlimit="10"/>
<path d="M492.791 422.606L489.076 376.055" stroke="#263238" stroke-miterlimit="10"/>
<path d="M497.892 486.507L493.302 429.003" stroke="#263238" stroke-miterlimit="10"/>
<path d="M518.594 360.749C518.594 360.749 514.072 362.018 505.832 355.698C505.832 355.698 512.826 353.278 518.594 360.749Z" fill="#92E3A9"/>
<path d="M521.774 365.896C521.774 365.896 517.252 367.165 509.012 360.845C509.012 360.845 516.005 358.424 521.774 365.896Z" fill="#92E3A9"/>
<path d="M522.34 374.181C522.34 374.181 517.652 374.156 511.351 365.793C511.351 365.793 518.717 365.391 522.34 374.181Z" fill="#92E3A9"/>
<path d="M505.264 377.675C505.264 377.675 504.184 372.97 510.578 364.684C510.578 364.684 512.693 371.974 505.264 377.675Z" fill="#92E3A9"/>
<path d="M500.747 367.103C500.747 367.103 499.667 362.397 506.062 354.111C506.062 354.111 508.175 361.402 500.747 367.103Z" fill="white" stroke="#263238" stroke-miterlimit="10" stroke-linecap="round" stroke-linejoin="round"/>
<path d="M503.238 371.384C503.238 371.384 502.158 366.678 508.553 358.392C508.553 358.392 510.666 365.683 503.238 371.384Z" fill="#92E3A9"/>
<path d="M505.31 329.289C505.31 329.289 506.388 333.995 499.988 342.278C499.988 342.278 497.879 334.987 505.31 329.289Z" fill="#92E3A9"/>
<path d="M510.403 326.183C510.403 326.183 511.481 330.889 505.081 339.172C505.081 339.172 502.972 331.881 510.403 326.183Z" fill="#92E3A9"/>
<path d="M518.448 325.879C518.448 325.879 518.267 330.711 509.954 336.927C509.954 336.927 509.81 329.319 518.448 325.879Z" fill="#92E3A9"/>
<path d="M521.261 343.603C521.261 343.603 516.666 344.558 508.854 337.687C508.854 337.687 515.987 335.752 521.261 343.603Z" fill="#92E3A9"/>
<path d="M510.866 347.905C510.866 347.905 506.272 348.861 498.46 341.989C498.46 341.989 505.592 340.055 510.866 347.905Z" fill="white" stroke="#263238" stroke-miterlimit="10" stroke-linecap="round" stroke-linejoin="round"/>
<path d="M515.096 345.48C515.096 345.48 510.502 346.436 502.69 339.564C502.69 339.564 509.824 337.63 515.096 345.48Z" fill="#92E3A9"/>
<path d="M452.92 375.16C452.92 375.16 452.719 370.329 460.512 363.435C460.512 363.435 461.256 371.005 452.92 375.16Z" fill="white" stroke="#263238" stroke-miterlimit="10" stroke-linecap="round" stroke-linejoin="round"/>
<path d="M447.352 377.224C447.352 377.224 447.151 372.393 454.945 365.498C454.945 365.498 455.688 373.068 447.352 377.224Z" fill="#92E3A9"/>
<path d="M439.394 375.963C439.394 375.963 440.453 371.253 449.749 366.759C449.749 366.759 448.505 374.259 439.394 375.963Z" fill="#92E3A9"/>
<path d="M439.861 358.01C439.861 358.01 444.548 357.963 450.97 366.226C450.97 366.226 443.611 366.743 439.861 358.01Z" fill="#92E3A9"/>
<path d="M450.853 355.799C450.853 355.799 455.54 355.752 461.962 364.015C461.962 364.015 454.603 364.532 450.853 355.799Z" fill="#92E3A9"/>
<path d="M446.256 357.36C446.256 357.36 450.943 357.313 457.364 365.576C457.364 365.576 450.006 366.094 446.256 357.36Z" fill="#92E3A9"/>
<path d="M454.915 357.548C454.915 357.548 454.613 350.267 466.358 339.878C466.358 339.878 467.479 351.286 454.915 357.548Z" fill="#92E3A9"/>
<path d="M446.525 360.657C446.525 360.657 446.222 353.376 457.968 342.987C457.968 342.987 459.089 354.395 446.525 360.657Z" fill="#92E3A9"/>
<path d="M434.533 358.758C434.533 358.758 436.128 351.659 450.139 344.887C450.139 344.887 448.262 356.19 434.533 358.758Z" fill="#92E3A9"/>
<path d="M435.236 331.701C435.236 331.701 442.3 331.629 451.978 344.084C451.978 344.084 440.887 344.862 435.236 331.701Z" fill="#92E3A9"/>
<path d="M451.802 328.368C451.802 328.368 458.866 328.297 468.544 340.751C468.544 340.751 457.453 341.53 451.802 328.368Z" fill="#92E3A9"/>
<path d="M444.875 330.723C444.875 330.723 451.938 330.651 461.616 343.105C461.616 343.105 450.526 343.884 444.875 330.723Z" fill="#92E3A9"/>
<path d="M477.055 390.19C477.055 390.19 471.472 385.727 471.365 369.766C471.365 369.766 480.533 376.251 477.055 390.19Z" fill="#92E3A9"/>
<path d="M473.94 398.808C473.94 398.808 468.356 394.345 468.25 378.384C468.25 378.384 477.418 384.868 473.94 398.808Z" fill="#92E3A9"/>
<path d="M464.791 407.03C464.791 407.03 460.567 401.19 464.6 385.779C464.6 385.779 471.755 394.556 464.791 407.03Z" fill="#92E3A9"/>
<path d="M445.218 389.006C445.218 389.006 449.725 383.395 465.192 383.813C465.192 383.813 458.609 393.051 445.218 389.006Z" fill="#92E3A9"/>
<path d="M453.448 373.803C453.448 373.803 457.956 368.192 473.422 368.61C473.422 368.61 466.838 377.85 453.448 373.803Z" fill="white" stroke="#263238" stroke-miterlimit="10" stroke-linecap="round" stroke-linejoin="round"/>
<path d="M450.718 380.78C450.718 380.78 455.226 375.17 470.692 375.588C470.692 375.588 464.108 384.827 450.718 380.78Z" fill="#92E3A9"/>
<path d="M503.767 373.31C503.767 373.31 496.801 374.517 485.359 363.771C485.359 363.771 496.196 361.219 503.767 373.31Z" fill="#92E3A9"/>
<path d="M507.792 381.517C507.792 381.517 500.826 382.724 489.384 371.978C489.384 371.978 500.22 369.425 507.792 381.517Z" fill="#92E3A9"/>
<path d="M507.443 394.028C507.443 394.028 500.418 393.269 492.178 379.76C492.178 379.76 503.28 380.288 507.443 394.028Z" fill="#92E3A9"/>
<path d="M481.33 396.642C481.33 396.642 480.391 389.419 491.178 377.976C491.178 377.976 493.294 389.235 481.33 396.642Z" fill="#92E3A9"/>
<path d="M476.083 380.092C476.083 380.092 475.145 372.87 485.932 361.427C485.932 361.427 488.047 372.685 476.083 380.092Z" fill="white" stroke="#263238" stroke-miterlimit="10" stroke-linecap="round" stroke-linejoin="round"/>
<path d="M479.201 386.895C479.201 386.895 478.262 379.672 489.049 368.229C489.049 368.229 491.165 379.488 479.201 386.895Z" fill="#92E3A9"/>
<path d="M511.712 341.695C511.712 341.695 514.289 342.685 513.893 344.267C513.497 345.849 514.488 346.442 515.28 347.035C516.073 347.628 516.667 350.001 516.667 350.001C516.667 350.001 515.676 351.187 516.469 351.781C517.262 352.374 518.452 354.55 518.452 355.143C518.452 355.736 517.064 355.934 516.866 356.725C516.668 357.516 517.462 358.307 516.866 359.493C516.271 360.679 513.893 360.679 513.695 361.272C513.497 361.865 513.695 363.447 511.91 364.238C510.127 365.029 508.343 364.04 508.343 364.04C508.343 364.04 507.352 365.226 506.36 365.424C505.369 365.622 504.378 363.644 503.784 363.644C503.19 363.644 502.793 363.446 501.208 363.644C499.622 363.842 499.423 362.655 499.027 361.864C498.631 361.073 496.847 361.469 496.253 360.083C495.658 358.699 496.847 355.535 496.847 355.535C496.847 355.535 496.649 354.546 495.658 353.36C494.666 352.174 496.253 349.999 496.253 349.999C496.253 349.999 497.244 349.406 497.244 348.022C497.244 346.638 498.433 345.846 499.424 346.241C500.416 346.636 501.407 343.868 501.407 343.868C501.407 343.868 502.992 342.088 504.181 342.879C505.37 343.67 506.362 342.681 506.362 342.681C506.362 342.681 507.155 340.902 508.146 341.89C509.137 342.879 509.137 342.879 509.137 342.879C509.137 342.879 510.127 340.706 511.712 341.695Z" fill="white" stroke="#263238" stroke-miterlimit="10" stroke-linecap="round" stroke-linejoin="round"/>
<path d="M503.388 353.667C503.388 355.417 504.763 356.836 506.46 356.836C508.157 356.836 509.532 355.417 509.532 353.667C509.532 351.916 508.157 350.498 506.46 350.498C504.763 350.498 503.388 351.916 503.388 353.667Z" fill="#92E3A9" stroke="#263238" stroke-miterlimit="10" stroke-linecap="round" stroke-linejoin="round"/>
<path d="M507.154 350.293L507.947 344.976" stroke="#263238" stroke-miterlimit="10" stroke-linecap="round" stroke-linejoin="round"/>
<path d="M504.379 351.519L502.199 347.634" stroke="#263238" stroke-miterlimit="10" stroke-linecap="round" stroke-linejoin="round"/>
<path d="M503.388 355.405L499.225 358.881" stroke="#263238" stroke-miterlimit="10" stroke-linecap="round" stroke-linejoin="round"/>
<path d="M508.74 356.018L511.118 360.925" stroke="#263238" stroke-miterlimit="10" stroke-linecap="round" stroke-linejoin="round"/>
<path d="M509.136 352.542L513.695 350.702" stroke="#263238" stroke-miterlimit="10" stroke-linecap="round" stroke-linejoin="round"/>
<path d="M506.46 356.836L505.766 361.13" stroke="#263238" stroke-miterlimit="10" stroke-linecap="round" stroke-linejoin="round"/>
<path d="M508.145 350.906L510.92 345.589" stroke="#263238" stroke-miterlimit="10" stroke-linecap="round" stroke-linejoin="round"/>
<path d="M509.334 354.995L513.497 356.222" stroke="#263238" stroke-miterlimit="10" stroke-linecap="round" stroke-linejoin="round"/>
<path d="M503.388 353.666L499.622 353.156" stroke="#263238" stroke-miterlimit="10" stroke-linecap="round" stroke-linejoin="round"/>
<path d="M504.775 356.632L503.388 359.698" stroke="#263238" stroke-miterlimit="10" stroke-linecap="round" stroke-linejoin="round"/>
<path d="M490.654 360.706C490.654 360.706 493.23 361.694 492.834 363.276C492.438 364.858 493.429 365.451 494.221 366.044C495.014 366.637 495.608 369.011 495.608 369.011C495.608 369.011 494.617 370.197 495.41 370.791C496.204 371.384 497.393 373.559 497.393 374.152C497.393 374.745 496.006 374.943 495.808 375.734C495.61 376.525 496.402 377.316 495.808 378.502C495.212 379.688 492.834 379.688 492.636 380.283C492.438 380.876 492.636 382.458 490.853 383.249C489.068 384.04 487.285 383.051 487.285 383.051C487.285 383.051 486.294 384.237 485.303 384.435C484.312 384.633 483.32 382.655 482.726 382.655C482.132 382.655 481.735 382.457 480.15 382.655C478.565 382.853 478.366 381.666 477.97 380.874C477.574 380.083 475.789 380.479 475.195 379.094C474.6 377.71 475.789 374.546 475.789 374.546C475.789 374.546 475.591 373.557 474.6 372.371C473.609 371.185 475.195 369.009 475.195 369.009C475.195 369.009 476.186 368.416 476.186 367.032C476.186 365.648 477.376 364.857 478.367 365.253C479.358 365.648 480.349 362.88 480.349 362.88C480.349 362.88 481.934 361.1 483.124 361.891C484.313 362.682 485.304 361.693 485.304 361.693C485.304 361.693 486.097 359.913 487.087 360.902C488.078 361.891 488.078 361.891 488.078 361.891C488.078 361.891 489.067 359.718 490.654 360.706Z" fill="white" stroke="#263238" stroke-miterlimit="10" stroke-linecap="round" stroke-linejoin="round"/>
<path d="M482.328 372.678C482.328 374.428 483.703 375.847 485.4 375.847C487.097 375.847 488.472 374.428 488.472 372.678C488.472 370.927 487.097 369.508 485.4 369.508C483.704 369.508 482.328 370.927 482.328 372.678Z" fill="#92E3A9" stroke="#263238" stroke-miterlimit="10" stroke-linecap="round" stroke-linejoin="round"/>
<path d="M486.095 369.303L486.887 363.987" stroke="#263238" stroke-miterlimit="10" stroke-linecap="round" stroke-linejoin="round"/>
<path d="M483.319 370.53L481.139 366.645" stroke="#263238" stroke-miterlimit="10" stroke-linecap="round" stroke-linejoin="round"/>
<path d="M482.328 374.416L478.166 377.892" stroke="#263238" stroke-miterlimit="10" stroke-linecap="round" stroke-linejoin="round"/>
<path d="M487.68 375.029L490.058 379.936" stroke="#263238" stroke-miterlimit="10" stroke-linecap="round" stroke-linejoin="round"/>
<path d="M488.076 371.552L492.635 369.713" stroke="#263238" stroke-miterlimit="10" stroke-linecap="round" stroke-linejoin="round"/>
<path d="M485.401 375.847L484.706 380.14" stroke="#263238" stroke-miterlimit="10" stroke-linecap="round" stroke-linejoin="round"/>
<path d="M487.085 369.917L489.86 364.601" stroke="#263238" stroke-miterlimit="10" stroke-linecap="round" stroke-linejoin="round"/>
<path d="M488.274 374.006L492.437 375.233" stroke="#263238" stroke-miterlimit="10" stroke-linecap="round" stroke-linejoin="round"/>
<path d="M482.328 372.677L478.562 372.166" stroke="#263238" stroke-miterlimit="10" stroke-linecap="round" stroke-linejoin="round"/>
<path d="M483.716 375.643L482.328 378.709" stroke="#263238" stroke-miterlimit="10" stroke-linecap="round" stroke-linejoin="round"/>
<path d="M487.748 316.703C487.748 316.703 491.434 319.69 491.434 330.282C491.434 330.282 485.378 325.937 487.748 316.703Z" fill="#92E3A9"/>
<path d="M489.854 310.999C489.854 310.999 493.54 313.986 493.54 324.579C493.54 324.579 487.484 320.233 489.854 310.999Z" fill="#92E3A9"/>
<path d="M495.961 305.588C495.961 305.588 498.738 309.483 495.994 319.689C495.994 319.689 491.285 313.832 495.961 305.588Z" fill="#92E3A9"/>
<path d="M508.868 317.64C508.868 317.64 505.853 321.342 495.592 320.991C495.592 320.991 500 314.892 508.868 317.64Z" fill="#92E3A9"/>
<path d="M503.34 327.687C503.34 327.687 500.324 331.389 490.063 331.039C490.063 331.039 494.473 324.94 503.34 327.687Z" fill="#92E3A9"/>
<path d="M505.183 323.071C505.183 323.071 502.168 326.773 491.906 326.422C491.906 326.422 496.315 320.323 505.183 323.071Z" fill="#92E3A9"/>
<path d="M505.169 363.737C505.169 363.737 500.646 365.006 492.408 358.686C492.408 358.686 499.4 356.265 505.169 363.737Z" fill="#92E3A9"/>
<path d="M508.349 368.883C508.349 368.883 503.826 370.152 495.587 363.832C495.587 363.832 502.58 361.412 508.349 368.883Z" fill="#92E3A9"/>
<path d="M508.914 377.168C508.914 377.168 504.227 377.143 497.926 368.78C497.926 368.78 505.291 368.378 508.914 377.168Z" fill="#92E3A9"/>
<path d="M491.838 380.663C491.838 380.663 490.758 375.957 497.153 367.671C497.153 367.671 499.267 374.962 491.838 380.663Z" fill="#92E3A9"/>
<path d="M487.321 370.09C487.321 370.09 486.241 365.385 492.636 357.099C492.636 357.099 494.749 364.389 487.321 370.09Z" fill="#92E3A9"/>
<path d="M489.812 374.371C489.812 374.371 488.732 369.666 495.127 361.38C495.127 361.38 497.24 368.669 489.812 374.371Z" fill="#92E3A9"/>
<path d="M469.496 327.866C469.496 327.866 474.178 327.626 480.913 335.618C480.913 335.618 473.581 336.438 469.496 327.866Z" fill="white" stroke="#263238" stroke-miterlimit="10" stroke-linecap="round" stroke-linejoin="round"/>
<path d="M467.459 322.136C467.459 322.136 472.14 321.896 478.876 329.889C478.876 329.889 471.544 330.708 467.459 322.136Z" fill="#92E3A9"/>
<path d="M468.625 313.918C468.625 313.918 473.198 314.978 477.618 324.538C477.618 324.538 470.339 323.305 468.625 313.918Z" fill="#92E3A9"/>
<path d="M486.03 314.275C486.03 314.275 486.108 319.109 478.142 325.791C478.142 325.791 477.59 318.204 486.03 314.275Z" fill="#92E3A9"/>
<path d="M488.249 325.6C488.249 325.6 488.327 330.435 480.361 337.116C480.361 337.116 479.81 329.53 488.249 325.6Z" fill="#92E3A9"/>
<path d="M486.703 320.87C486.703 320.87 486.781 325.704 478.816 332.386C478.816 332.386 478.265 324.798 486.703 320.87Z" fill="#92E3A9"/>
<path d="M494.592 329.184C494.592 329.184 498.014 330.498 497.488 332.599C496.961 334.699 498.277 335.488 499.331 336.275C500.384 337.063 501.174 340.215 501.174 340.215C501.174 340.215 499.858 341.791 500.911 342.578C501.965 343.365 503.544 346.255 503.544 347.042C503.544 347.83 501.701 348.093 501.438 349.143C501.175 350.194 502.228 351.244 501.438 352.82C500.648 354.396 497.489 354.396 497.226 355.183C496.963 355.971 497.226 358.073 494.857 359.123C492.488 360.174 490.118 358.86 490.118 358.86C490.118 358.86 488.802 360.436 487.486 360.699C486.169 360.961 484.853 358.335 484.063 358.335C483.274 358.335 482.747 358.073 480.641 358.335C478.535 358.598 478.272 357.022 477.745 355.972C477.218 354.922 474.85 355.447 474.06 353.609C473.27 351.77 474.85 347.569 474.85 347.569C474.85 347.569 474.587 346.255 473.27 344.68C471.954 343.104 474.06 340.216 474.06 340.216C474.06 340.216 475.376 339.427 475.376 337.59C475.376 335.752 476.956 334.702 478.272 335.227C479.588 335.752 480.905 332.075 480.905 332.075C480.905 332.075 483.011 329.712 484.59 330.761C486.169 331.811 487.486 330.499 487.486 330.499C487.486 330.499 488.538 328.136 489.854 329.448C491.171 330.761 491.171 330.761 491.171 330.761C491.171 330.761 492.486 327.871 494.592 329.184Z" fill="white" stroke="#263238" stroke-miterlimit="10" stroke-linecap="round" stroke-linejoin="round"/>
<path d="M483.536 345.083C483.536 347.408 485.363 349.292 487.616 349.292C489.87 349.292 491.696 347.408 491.696 345.083C491.696 342.758 489.87 340.873 487.616 340.873C485.363 340.873 483.536 342.758 483.536 345.083Z" fill="#92E3A9" stroke="#263238" stroke-miterlimit="10" stroke-linecap="round" stroke-linejoin="round"/>
<path d="M488.538 340.602L489.59 333.541" stroke="#263238" stroke-miterlimit="10" stroke-linecap="round" stroke-linejoin="round"/>
<path d="M484.853 342.231L481.957 337.072" stroke="#263238" stroke-miterlimit="10" stroke-linecap="round" stroke-linejoin="round"/>
<path d="M483.536 347.391L478.008 352.008" stroke="#263238" stroke-miterlimit="10" stroke-linecap="round" stroke-linejoin="round"/>
<path d="M490.644 348.206L493.802 354.724" stroke="#263238" stroke-miterlimit="10" stroke-linecap="round" stroke-linejoin="round"/>
<path d="M491.171 343.59L497.225 341.145" stroke="#263238" stroke-miterlimit="10" stroke-linecap="round" stroke-linejoin="round"/>
<path d="M487.616 349.292L486.695 354.995" stroke="#263238" stroke-miterlimit="10" stroke-linecap="round" stroke-linejoin="round"/>
<path d="M489.854 341.417L493.54 334.355" stroke="#263238" stroke-miterlimit="10" stroke-linecap="round" stroke-linejoin="round"/>
<path d="M491.434 346.848L496.962 348.477" stroke="#263238" stroke-miterlimit="10" stroke-linecap="round" stroke-linejoin="round"/>
<path d="M483.536 345.083L478.535 344.404" stroke="#263238" stroke-miterlimit="10" stroke-linecap="round" stroke-linejoin="round"/>
<path d="M485.378 349.021L483.536 353.095" stroke="#263238" stroke-miterlimit="10" stroke-linecap="round" stroke-linejoin="round"/>
<path d="M474.848 349.01C474.848 349.01 478.271 350.323 477.744 352.424C477.217 354.525 478.534 355.313 479.586 356.101C480.64 356.888 481.429 360.04 481.429 360.04C481.429 360.04 480.113 361.616 481.166 362.403C482.22 363.191 483.799 366.08 483.799 366.868C483.799 367.656 481.956 367.919 481.693 368.969C481.43 370.02 482.483 371.069 481.693 372.645C480.904 374.221 477.745 374.221 477.481 375.009C477.218 375.796 477.481 377.898 475.112 378.948C472.744 379.999 470.374 378.686 470.374 378.686C470.374 378.686 469.057 380.262 467.741 380.524C466.424 380.787 465.108 378.161 464.318 378.161C463.529 378.161 463.002 377.898 460.896 378.161C458.79 378.423 458.527 376.847 458 375.797C457.474 374.746 455.105 375.272 454.315 373.434C453.526 371.596 455.105 367.394 455.105 367.394C455.105 367.394 454.841 366.08 453.526 364.504C452.209 362.928 454.315 360.04 454.315 360.04C454.315 360.04 455.632 359.253 455.632 357.414C455.632 355.576 457.211 354.526 458.527 355.051C459.844 355.576 461.16 351.899 461.16 351.899C461.16 351.899 463.266 349.536 464.845 350.586C466.424 351.637 467.741 350.323 467.741 350.323C467.741 350.323 468.794 347.96 470.11 349.272C471.426 350.586 471.426 350.586 471.426 350.586C471.426 350.586 472.744 347.696 474.848 349.01Z" fill="white" stroke="#263238" stroke-miterlimit="10" stroke-linecap="round" stroke-linejoin="round"/>
<path d="M463.793 364.909C463.793 367.234 465.619 369.118 467.873 369.118C470.126 369.118 471.953 367.234 471.953 364.909C471.953 362.584 470.126 360.7 467.873 360.7C465.619 360.699 463.793 362.584 463.793 364.909Z" fill="#92E3A9" stroke="#263238" stroke-miterlimit="10" stroke-linecap="round" stroke-linejoin="round"/>
<path d="M468.794 360.428L469.847 353.366" stroke="#263238" stroke-miterlimit="10" stroke-linecap="round" stroke-linejoin="round"/>
<path d="M465.109 362.057L462.214 356.897" stroke="#263238" stroke-miterlimit="10" stroke-linecap="round" stroke-linejoin="round"/>
<path d="M463.793 367.217L458.264 371.833" stroke="#263238" stroke-miterlimit="10" stroke-linecap="round" stroke-linejoin="round"/>
<path d="M470.9 368.031L474.059 374.549" stroke="#263238" stroke-miterlimit="10" stroke-linecap="round" stroke-linejoin="round"/>
<path d="M471.427 363.415L477.481 360.971" stroke="#263238" stroke-miterlimit="10" stroke-linecap="round" stroke-linejoin="round"/>
<path d="M467.873 369.118L466.951 374.821" stroke="#263238" stroke-miterlimit="10" stroke-linecap="round" stroke-linejoin="round"/>
<path d="M470.111 361.242L473.796 354.181" stroke="#263238" stroke-miterlimit="10" stroke-linecap="round" stroke-linejoin="round"/>
<path d="M471.69 366.673L477.218 368.304" stroke="#263238" stroke-miterlimit="10" stroke-linecap="round" stroke-linejoin="round"/>
<path d="M463.793 364.909L458.791 364.23" stroke="#263238" stroke-miterlimit="10" stroke-linecap="round" stroke-linejoin="round"/>
<path d="M465.636 368.846L463.793 372.92" stroke="#263238" stroke-miterlimit="10" stroke-linecap="round" stroke-linejoin="round"/>
<path d="M472.993 325.372C472.993 325.372 475.57 326.362 475.174 327.942C474.778 329.523 475.768 330.118 476.561 330.711C477.354 331.304 477.948 333.677 477.948 333.677C477.948 333.677 476.957 334.863 477.75 335.457C478.543 336.05 479.732 338.225 479.732 338.818C479.732 339.411 478.345 339.609 478.147 340.4C477.949 341.192 478.741 341.983 478.147 343.169C477.552 344.355 475.174 344.355 474.976 344.949C474.778 345.542 474.976 347.124 473.191 347.915C471.407 348.706 469.624 347.717 469.624 347.717C469.624 347.717 468.632 348.903 467.641 349.101C466.65 349.299 465.659 347.321 465.065 347.321C464.471 347.321 464.074 347.123 462.488 347.321C460.903 347.519 460.704 346.332 460.308 345.541C459.912 344.75 458.128 345.146 457.534 343.76C456.938 342.376 458.129 339.212 458.129 339.212C458.129 339.212 457.931 338.223 456.94 337.037C455.948 335.851 457.535 333.676 457.535 333.676C457.535 333.676 458.526 333.083 458.526 331.699C458.526 330.314 459.715 329.523 460.706 329.918C461.698 330.315 462.689 327.545 462.689 327.545C462.689 327.545 464.274 325.765 465.463 326.556C466.652 327.347 467.644 326.358 467.644 326.358C467.644 326.358 468.437 324.578 469.427 325.567C470.418 326.556 470.418 326.556 470.418 326.556C470.418 326.556 471.408 324.383 472.993 325.372Z" fill="white" stroke="#263238" stroke-miterlimit="10" stroke-linecap="round" stroke-linejoin="round"/>
<path d="M464.669 337.343C464.669 339.093 466.044 340.512 467.741 340.512C469.438 340.512 470.813 339.093 470.813 337.343C470.813 335.592 469.438 334.173 467.741 334.173C466.045 334.173 464.669 335.592 464.669 337.343Z" fill="#92E3A9" stroke="#263238" stroke-miterlimit="10" stroke-linecap="round" stroke-linejoin="round"/>
<path d="M468.436 333.969L469.228 328.653" stroke="#263238" stroke-miterlimit="10" stroke-linecap="round" stroke-linejoin="round"/>
<path d="M465.66 335.196L463.48 331.311" stroke="#263238" stroke-miterlimit="10" stroke-linecap="round" stroke-linejoin="round"/>
<path d="M464.669 339.081L460.507 342.557" stroke="#263238" stroke-miterlimit="10" stroke-linecap="round" stroke-linejoin="round"/>
<path d="M470.021 339.695L472.399 344.602" stroke="#263238" stroke-miterlimit="10" stroke-linecap="round" stroke-linejoin="round"/>
<path d="M470.417 336.218L474.976 334.378" stroke="#263238" stroke-miterlimit="10" stroke-linecap="round" stroke-linejoin="round"/>
<path d="M467.741 340.512L467.047 344.807" stroke="#263238" stroke-miterlimit="10" stroke-linecap="round" stroke-linejoin="round"/>
<path d="M469.426 334.582L472.201 329.266" stroke="#263238" stroke-miterlimit="10" stroke-linecap="round" stroke-linejoin="round"/>
<path d="M470.616 338.672L474.778 339.899" stroke="#263238" stroke-miterlimit="10" stroke-linecap="round" stroke-linejoin="round"/>
<path d="M464.669 337.342L460.903 336.831" stroke="#263238" stroke-miterlimit="10" stroke-linecap="round" stroke-linejoin="round"/>
<path d="M466.057 340.308L464.669 343.375" stroke="#263238" stroke-miterlimit="10" stroke-linecap="round" stroke-linejoin="round"/>
<path d="M462.739 322.406C463.757 322.406 464.582 321.555 464.582 320.505C464.582 319.454 463.757 318.603 462.739 318.603C461.721 318.603 460.896 319.454 460.896 320.505C460.896 321.555 461.721 322.406 462.739 322.406Z" fill="#92E3A9"/>
<path d="M478.008 311.407C478.008 312.081 478.538 312.628 479.192 312.628C479.846 312.628 480.377 312.081 480.377 311.407C480.377 310.732 479.846 310.185 479.192 310.185C478.538 310.185 478.008 310.732 478.008 311.407Z" fill="#92E3A9"/>
<path d="M456.685 322.135C456.685 322.734 457.157 323.221 457.739 323.221C458.321 323.221 458.791 322.734 458.791 322.135C458.791 321.535 458.32 321.048 457.739 321.048C457.157 321.048 456.685 321.535 456.685 322.135Z" fill="#92E3A9"/>
<path d="M468.532 307.197C468.532 307.647 468.886 308.012 469.321 308.012C469.757 308.012 470.111 307.647 470.111 307.197C470.111 306.748 469.757 306.383 469.321 306.383C468.886 306.383 468.532 306.748 468.532 307.197Z" fill="#92E3A9"/>
<path d="M473.796 313.987C473.796 314.587 474.268 315.073 474.848 315.073C475.43 315.073 475.902 314.587 475.902 313.987C475.902 313.386 475.43 312.901 474.848 312.901C474.268 312.901 473.796 313.387 473.796 313.987Z" fill="#92E3A9"/>
<path d="M473.796 308.284C473.796 308.734 474.15 309.099 474.586 309.099C475.021 309.099 475.375 308.734 475.375 308.284C475.375 307.835 475.021 307.47 474.586 307.47C474.15 307.47 473.796 307.834 473.796 308.284Z" fill="#92E3A9"/>
<path d="M522.76 358.526C522.76 359.126 523.231 359.613 523.812 359.613C524.394 359.613 524.866 359.126 524.866 358.526C524.866 357.926 524.394 357.439 523.812 357.439C523.231 357.44 522.76 357.927 522.76 358.526Z" fill="#92E3A9"/>
<path d="M521.18 352.415C521.18 353.24 521.828 353.908 522.628 353.908C523.427 353.908 524.076 353.24 524.076 352.415C524.076 351.591 523.428 350.921 522.628 350.921C521.828 350.922 521.18 351.591 521.18 352.415Z" fill="#92E3A9"/>
<path d="M527.234 354.724C527.234 355.474 527.824 356.082 528.551 356.082C529.278 356.082 529.867 355.474 529.867 354.724C529.867 353.974 529.278 353.366 528.551 353.366C527.825 353.366 527.234 353.974 527.234 354.724Z" fill="#92E3A9"/>
<path d="M454.447 398.178C454.956 398.178 455.369 397.752 455.369 397.227C455.369 396.702 454.956 396.276 454.447 396.276C453.938 396.276 453.526 396.702 453.526 397.227C453.526 397.752 453.938 398.178 454.447 398.178Z" fill="#92E3A9"/>
<path d="M457.738 391.66C457.738 392.26 458.209 392.747 458.79 392.747C459.372 392.747 459.844 392.26 459.844 391.66C459.844 391.059 459.372 390.573 458.79 390.573C458.209 390.573 457.738 391.059 457.738 391.66Z" fill="#92E3A9"/>
<path d="M442.47 381.068C442.47 381.968 443.177 382.697 444.049 382.697C444.922 382.697 445.628 381.968 445.628 381.068C445.628 380.168 444.922 379.438 444.049 379.438C443.177 379.438 442.47 380.168 442.47 381.068Z" fill="#92E3A9"/>
<path d="M409.129 102.652C409.129 102.652 431.95 114.86 448.008 125.324C464.066 135.788 491.958 139.275 491.958 139.275V127.94C491.958 127.94 474.209 114.86 459.84 107.884C445.472 100.908 409.129 102.652 409.129 102.652Z" fill="white" stroke="#263238" stroke-miterlimit="10"/>
<path d="M265.698 369.708L263.474 423.349C263.474 423.349 263.474 457.994 263.021 466.657C262.567 475.318 262.114 519.561 262.114 519.561C262.114 519.561 259.391 527.286 258.937 528.926C258.484 530.565 253.492 535.949 252.584 537.353C251.677 538.758 246.458 541.801 246.685 542.971C246.912 544.141 246.912 545.078 251.45 545.312C255.989 545.546 279.587 546.951 281.176 545.312C282.764 543.673 286.394 541.567 286.621 537.353C286.848 533.139 286.848 525.179 286.848 525.179C286.848 525.179 288.664 505.047 289.117 494.981C289.571 484.915 292.747 436.692 292.975 435.053C293.202 433.414 301.597 374.423 301.597 374.423L304.547 374.657C304.547 374.657 312.715 442.778 312.715 444.417C312.715 446.056 314.758 464.316 316.118 480.234C317.48 496.152 321.11 518.391 321.337 520.263C321.564 522.136 323.833 535.948 324.287 538.289C324.74 540.63 325.648 542.737 326.556 543.205C327.463 543.673 329.279 544.375 331.094 544.141C332.91 543.907 347.658 543.439 350.836 542.971C354.012 542.503 356.054 542.035 355.601 538.991C355.147 535.948 351.971 530.797 349.702 528.456C347.432 526.115 346.979 525.881 346.525 524.242C346.072 522.603 344.71 518.39 344.71 518.39C344.71 518.39 345.617 512.07 344.936 509.963C344.256 507.856 343.576 505.983 342.667 498.493C341.76 491.002 342.894 472.743 342.214 464.082C341.533 455.421 339.718 438.097 339.718 438.097L341.306 364.124L267.562 361.315L265.698 369.708Z" fill="#263238" stroke="#263238" stroke-miterlimit="10"/>
<path d="M287.617 238.861C287.617 238.861 278.396 242.135 276.884 242.915C275.372 243.695 259.238 252.931 258.482 256.205C257.726 259.481 240.343 313.962 239.436 316.768C238.529 319.575 240.494 318.64 247.902 320.823C255.31 323.007 258.744 322.607 259.5 321.672C260.256 320.736 269.023 302.333 269.023 302.333L267.36 344.597C267.36 344.597 264.941 368.458 265.697 369.706C266.453 370.954 288.977 381.871 291.848 382.495C294.72 383.119 300.918 385.301 300.918 385.301C300.918 385.301 303.941 379.375 304.394 379.063C304.848 378.751 306.964 385.925 306.964 385.925C306.964 385.925 319.208 383.118 329.185 377.815C339.162 372.513 344.604 362.844 344.604 362.844L340.825 338.047L339.918 326.974L358.814 318.864C358.814 318.864 353.326 276.02 351.512 269.313C349.698 262.607 348.64 256.525 347.582 254.654C346.524 252.782 331.454 244.786 325.256 241.978C319.058 239.17 310.896 236.052 310.896 236.052L293.209 236.52L287.617 238.861Z" fill="#263238" stroke="#263238" stroke-miterlimit="10"/>
<path d="M287.617 238.861C287.617 238.861 284.264 241.232 285.354 247.973C286.444 254.715 304.231 292.916 304.231 292.916C304.231 292.916 320.204 253.591 320.568 247.224C320.93 240.857 318.39 239.359 317.3 238.235C316.212 237.113 289.88 236.865 287.617 238.861Z" fill="white" stroke="#263238" stroke-miterlimit="10"/>
<path d="M286.256 230.752C286.256 230.752 287.466 242.449 288.827 244.788C290.188 247.128 301.676 260.696 301.676 260.696L303.491 264.906L306.212 259.448C306.212 259.448 317.399 243.541 318.004 240.733C318.608 237.925 319.516 232.389 319.516 232.389L286.256 230.752Z" fill="white" stroke="#263238" stroke-miterlimit="10"/>
<path d="M280.814 213.051C280.814 213.051 286.256 233.482 287.164 236.132C288.071 238.784 297.14 249.233 299.56 250.013C301.979 250.793 309.083 250.793 310.746 249.389C312.409 247.985 319.212 235.976 319.513 232.39C319.816 228.803 321.328 208.217 321.479 200.263C321.63 192.308 321.781 189.19 315.886 183.108C309.99 177.025 300.467 176.869 295.478 179.053C290.49 181.237 282.326 184.356 279.606 191.218C276.884 198.079 280.814 213.051 280.814 213.051Z" fill="white" stroke="#263238" stroke-miterlimit="10"/>
<path d="M281.268 214.611C281.268 214.611 278.094 212.271 277.792 216.951C277.489 221.629 279.757 225.061 281.117 225.996C282.478 226.932 284.593 226.932 284.593 226.932L281.268 214.611Z" fill="white" stroke="#263238" stroke-miterlimit="10"/>
<path d="M321.176 212.583C321.176 212.583 323.747 209.775 324.653 213.519C325.56 217.262 324.199 219.757 322.99 221.785C321.78 223.813 320.269 226.308 320.269 226.308L321.176 212.583Z" fill="white" stroke="#263238" stroke-miterlimit="10"/>
<path d="M308.024 225.372C308.024 225.372 311.652 226.464 316.338 223.812" stroke="#263238" stroke-miterlimit="10" stroke-linecap="round"/>
<path d="M308.176 222.096C308.176 222.096 311.501 217.73 316.188 219.912" stroke="#263238" stroke-miterlimit="10" stroke-linecap="round"/>
<path d="M297.745 225.372C297.745 225.372 293.815 226.932 290.791 224.124" stroke="#263238" stroke-miterlimit="10" stroke-linecap="round"/>
<path d="M299.56 222.408C299.56 222.408 294.874 218.821 291.095 220.224" stroke="#263238" stroke-miterlimit="10" stroke-linecap="round"/>
<path d="M299.862 236.6C299.862 236.6 301.828 238.316 303.943 238.472C306.06 238.628 307.42 238.316 308.478 236.444" stroke="#263238" stroke-miterlimit="10" stroke-linecap="round"/>
<path d="M297.292 239.875C297.292 239.875 300.316 242.371 304.397 242.215C308.478 242.059 311.048 238.004 311.048 238.004" stroke="#263238" stroke-miterlimit="10" stroke-linecap="round"/>
<path d="M295.478 179.053C290.49 181.237 282.326 184.356 279.606 191.218C276.884 198.08 280.816 213.051 280.816 213.051C280.816 213.051 281.66 216.222 282.738 220.224L282.78 220.225L284.443 220.537C284.443 220.537 283.99 217.574 283.99 216.795C283.99 216.015 287.617 217.575 287.165 215.703C286.711 213.831 285.35 208.373 285.653 206.969C285.955 205.565 286.711 203.85 292.002 207.281C297.293 210.711 311.05 210.089 313.014 208.529C314.98 206.969 317.549 202.758 317.549 202.758C317.549 202.758 317.851 211.648 318.154 213.519C318.456 215.391 319.968 216.171 319.968 216.171C319.968 216.171 319.968 217.107 319.968 218.043C319.968 218.979 320.27 220.383 320.27 220.383C320.27 220.383 320.352 219.881 320.479 219.083C320.94 212.197 321.4 204.467 321.479 200.264C321.63 192.31 321.781 189.191 315.886 183.109C309.99 177.025 300.467 176.869 295.478 179.053Z" fill="#263238" stroke="#263238" stroke-miterlimit="10"/>
<path d="M299.408 227.008C299.408 227.008 297.594 229.348 295.63 229.972" stroke="#263238" stroke-miterlimit="10" stroke-linecap="round"/>
<path d="M308.024 228.1C308.024 228.1 310.595 229.504 312.106 229.816" stroke="#263238" stroke-miterlimit="10" stroke-linecap="round"/>
<path d="M297.746 309.741C297.746 309.741 299.818 310.81 301.889 310.383C303.96 309.956 306.445 309.314 305.203 311.665C303.96 314.016 301.889 314.658 300.647 314.229C299.405 313.801 297.54 315.298 297.332 313.802C297.125 312.305 296.296 308.672 297.746 309.741Z" fill="white" stroke="#263238" stroke-miterlimit="10" stroke-linecap="round" stroke-linejoin="round"/>
<path d="M273.71 307.964C273.71 307.964 285.934 305.756 287.804 305.894C293.604 306.321 294.94 306.789 296.918 308.03C301.687 311.021 303.694 314.64 304.937 315.921C306.18 317.204 306.654 318.501 306.24 319.569C305.826 320.637 304.66 321.938 303.755 320.851C300.188 316.567 299.521 317.213 299.521 317.213C299.521 317.213 299.612 318.714 299.198 319.997C298.784 321.28 298.369 322.134 293.606 323.629C288.842 325.125 288.221 326.193 286.564 325.339C284.906 324.485 284.078 323.202 284.7 322.134C285.322 321.065 286.357 319.997 286.357 319.997C286.357 319.997 283.872 321.065 281.386 320.211C278.899 319.357 276.829 317.647 276.829 317.647L273.71 307.964Z" fill="white" stroke="#263238" stroke-miterlimit="10" stroke-linecap="round" stroke-linejoin="round"/>
<path d="M286.561 325.34C286.561 325.34 291.325 321.921 291.947 320.211C292.568 318.501 291.779 317.686 290.743 315.549" stroke="#263238" stroke-miterlimit="10" stroke-linecap="round" stroke-linejoin="round"/>
<path d="M293.604 323.631C293.604 323.631 295.883 321.067 295.883 318.716C295.883 316.365 293.669 313.78 293.669 313.78" stroke="#263238" stroke-miterlimit="10" stroke-linecap="round" stroke-linejoin="round"/>
<path d="M241.099 312.871C241.099 312.871 238.529 318.329 238.529 320.981C238.529 323.632 241.258 330.068 243.82 331.898C245.785 333.302 253.645 335.328 259.39 332.99C261.924 331.957 278.244 320.976 278.244 320.976L273.709 307.564L247.59 312.389" fill="#263238"/>
<path d="M241.099 312.871C241.099 312.871 238.529 318.329 238.529 320.981C238.529 323.632 241.258 330.068 243.82 331.898C245.785 333.302 253.645 335.328 259.39 332.99C261.924 331.957 278.244 320.976 278.244 320.976L273.709 307.564L247.59 312.389" stroke="#263238" stroke-miterlimit="10"/>
<path d="M299.519 317.214C299.519 317.214 298.813 313.884 297.703 312.739" stroke="#263238" stroke-miterlimit="10" stroke-linecap="round" stroke-linejoin="round"/>
<path d="M268.418 294.693L272.047 333.838L301.223 346.938L301.072 308.418L268.418 294.693Z" fill="white" stroke="#263238" stroke-miterlimit="10"/>
<path d="M334.328 294.693L330.7 333.838L301.525 346.938L301.072 308.418L334.328 294.693Z" fill="white" stroke="#263238" stroke-miterlimit="10"/>
<path d="M319.664 326.976C319.664 326.976 317.245 323.077 316.339 320.581C315.432 318.086 311.956 317.93 310.141 315.435C308.327 312.939 306.514 314.499 306.816 316.527C307.118 318.555 308.63 320.425 309.386 321.361C310.142 322.297 310.445 323.077 309.84 323.389C309.235 323.701 307.572 324.169 307.572 324.169L298.351 321.985C298.351 321.985 290.188 316.995 289.282 315.279C288.374 313.563 286.862 315.747 287.467 317.619C288.072 319.491 288.072 319.491 288.072 319.491C288.072 319.491 286.862 323.701 287.467 325.573C288.072 327.445 288.828 328.535 289.13 329.003C289.433 329.471 289.433 330.719 290.189 332.278C290.945 333.838 293.665 335.24 295.782 335.864C297.899 336.488 289.584 333.993 290.038 335.864C290.491 337.736 292.003 338.048 295.48 338.515C298.956 338.983 301.829 339.763 305.456 339.763C309.084 339.763 316.794 338.983 316.794 338.983L324.806 338.515L324.504 327.286L319.664 326.976Z" fill="white" stroke="#263238" stroke-miterlimit="10"/>
<path d="M288.071 319.491C288.071 319.491 290.036 321.986 291.547 324.325C293.059 326.665 296.384 327.756 296.384 327.756" stroke="#263238" stroke-miterlimit="10"/>
<path d="M289.129 329.003C289.129 329.003 292.002 330.875 293.21 331.655C294.42 332.435 296.989 332.747 296.989 332.747" stroke="#263238" stroke-miterlimit="10"/>
<path d="M357.155 311.069C358.516 315.435 360.329 328.535 359.423 329.939C358.516 331.343 348.69 337.114 342.341 338.829C335.992 340.545 322.991 341.481 322.991 341.481L322.537 326.042C322.537 326.042 329.945 323.236 332.968 321.052C335.992 318.868 345.968 309.979 345.968 309.979" fill="#263238"/>
<path d="M357.155 311.069C358.516 315.435 360.329 328.535 359.423 329.939C358.516 331.343 348.69 337.114 342.341 338.829C335.992 340.545 322.991 341.481 322.991 341.481L322.537 326.042C322.537 326.042 329.945 323.236 332.968 321.052C335.992 318.868 345.968 309.979 345.968 309.979" stroke="#263238" stroke-miterlimit="10"/>
<path d="M322.698 288.512L331.093 286.171L327.463 281.723L322.698 288.512Z" fill="white" stroke="#263238" stroke-miterlimit="10"/>
<path d="M226.259 245.521C226.259 245.521 228.901 249.883 232.072 250.155C235.242 250.428 237.62 247.975 237.62 247.975" stroke="#263238" stroke-miterlimit="10" stroke-linecap="round"/>
<path d="M254.264 213.085C254.264 213.085 258.492 218.263 259.284 223.443C260.077 228.621 259.02 231.62 260.605 233.801C262.19 235.981 265.097 237.617 264.833 240.615C264.569 243.614 261.133 245.521 261.133 245.521C261.133 245.521 260.605 253.698 258.491 257.788C256.378 261.877 244.752 260.514 244.752 260.514L248.45 278.231C248.45 278.231 233.654 269.508 229.427 270.326C225.199 271.143 223.878 272.234 223.878 272.234C223.878 272.234 225.727 267.055 223.085 262.421C220.442 257.788 218.065 253.972 218.065 253.972L224.142 237.89C224.142 237.89 241.58 213.358 246.071 211.178C250.566 208.997 254.264 213.085 254.264 213.085Z" fill="white" stroke="#263238" stroke-miterlimit="10"/>
<path d="M227.833 244.943C227.833 244.943 229.685 248.925 230.902 249.691C232.118 250.457 235.844 249.164 235.844 249.164C235.844 249.164 237.889 253.208 238.913 253.911" fill="white"/>
<path d="M227.833 244.943C227.833 244.943 229.685 248.925 230.902 249.691C232.118 250.457 235.844 249.164 235.844 249.164C235.844 249.164 237.889 253.208 238.913 253.911" stroke="#263238" stroke-miterlimit="10"/>
<path d="M233.117 247.053C233.117 246.568 232.735 246.174 232.265 246.174C231.794 246.174 231.413 246.568 231.413 247.053C231.413 247.538 231.794 247.932 232.265 247.932C232.736 247.932 233.117 247.539 233.117 247.053Z" fill="white" stroke="#263238" stroke-miterlimit="10"/>
<path d="M257.675 233.484C257.77 235.011 257.261 236.286 256.54 236.334C255.817 236.382 255.155 235.183 255.06 233.658C254.965 232.131 255.474 230.856 256.195 230.808C256.918 230.761 257.58 231.959 257.675 233.484Z" fill="#263238"/>
<path d="M252.209 247.271C252.209 247.271 254.986 249.833 259.078 248.025" stroke="#263238" stroke-miterlimit="10" stroke-linecap="round"/>
<path d="M252.647 228.425C252.647 228.425 254.255 224.655 257.616 226.766" stroke="#263238" stroke-miterlimit="10" stroke-linecap="round"/>
<path d="M226.259 245.521C226.259 245.521 242.376 238.162 244.225 232.165C246.074 226.168 246.074 221.534 249.774 218.535C253.472 215.537 256.908 216.355 256.644 208.995C256.38 201.636 251.359 194.277 236.035 194.003C220.711 193.731 207.5 197.002 202.217 212.266C196.932 227.531 201.424 238.162 201.424 238.162C201.424 238.162 199.045 245.249 207.5 252.063C215.956 258.877 221.239 262.148 224.674 257.242C228.108 252.337 226.259 245.521 226.259 245.521Z" fill="#263238" stroke="#263238" stroke-miterlimit="10"/>
<path d="M214.897 246.884C214.897 246.884 213.84 235.709 204.857 233.255C195.874 230.802 192.439 232.437 190.061 242.251C187.682 252.064 193.76 259.968 201.686 261.058C209.612 262.149 215.689 258.06 216.218 253.972C216.746 249.883 214.897 246.884 214.897 246.884Z" fill="#263238" stroke="#263238" stroke-miterlimit="10"/>
<path d="M253.698 276.964C253.698 276.964 245.916 267.991 236.76 266.102C227.604 264.213 223.712 263.032 217.075 279.326C210.437 295.621 212.726 306.011 214.558 317.818C216.389 329.625 218.906 328.209 215.244 335.057C211.582 341.906 196.475 356.31 194.872 366.937C193.27 377.564 193.498 379.688 193.498 379.688C193.498 379.688 175.186 399.288 169.235 419.361C163.284 439.434 158.934 439.198 151.838 453.367C144.743 467.536 142.225 479.107 141.767 481.705C141.308 484.302 137.418 494.221 131.924 501.541C126.431 508.861 121.396 507.917 111.552 523.267C101.71 538.617 98.9628 534.838 94.842 539.797C90.7212 544.756 96.216 546.172 116.816 544.283C137.417 542.394 134.67 544.283 158.705 546.88C182.74 549.478 200.364 548.298 221.652 548.298C242.94 548.298 244.771 552.076 266.744 550.423C288.719 548.771 283.912 550.66 282.996 547.353C282.08 544.048 279.104 541.686 274.069 518.071C269.034 494.456 271.552 468.244 272.467 446.991C273.383 425.738 272.926 413.694 272.238 407.083C271.552 400.471 267.431 380.871 267.431 380.871C267.431 380.871 269.262 372.369 269.262 363.632C269.262 354.894 269.72 331.279 269.948 329.39C270.178 327.501 277.96 310.026 274.756 303.886C271.55 297.746 264.455 290.19 261.708 286.411C258.962 282.632 253.698 276.964 253.698 276.964Z" fill="white" stroke="#263238" stroke-miterlimit="10"/>
<path d="M251.444 387.835C253.276 387.699 255.1 387.505 256.903 387.244" stroke="#263238" stroke-miterlimit="10" stroke-linecap="round"/>
<path d="M200.594 380.868C200.594 380.868 224.12 388.774 247.582 388.039" stroke="#263238" stroke-miterlimit="10" stroke-linecap="round"/>
<path d="M194.976 418.856C194.519 420.894 194.1 423.03 193.727 425.264" stroke="#263238" stroke-miterlimit="10" stroke-linecap="round"/>
<path d="M211.123 384.175C211.123 384.175 201.839 393.231 196.172 414.034" stroke="#263238" stroke-miterlimit="10" stroke-linecap="round"/>
<path d="M209.711 469.212C208.354 476.844 207.172 484.657 206.317 492.329" stroke="#263238" stroke-miterlimit="10" stroke-linecap="round"/>
<path d="M224.857 406.136C224.857 406.136 216.726 432.401 210.839 463.105" stroke="#263238" stroke-miterlimit="10" stroke-linecap="round"/>
<path d="M219.592 536.628C219.761 528.689 220.504 516.57 222.797 499.887C227.375 466.59 233.326 432.349 233.555 431.641" stroke="#263238" stroke-miterlimit="10" stroke-linecap="round"/>
<path d="M219.821 548.297C219.821 548.297 219.53 545.558 219.55 539.845" stroke="#263238" stroke-miterlimit="10" stroke-linecap="round"/>
<path d="M257.256 502.148C257.719 507.102 258.276 509.805 258.276 509.805" stroke="#263238" stroke-miterlimit="10" stroke-linecap="round"/>
<path d="M263.999 390.314C263.999 390.314 266.059 420.068 259.878 453.837C256.474 472.437 256.333 487.526 256.895 497.329" stroke="#263238" stroke-miterlimit="10" stroke-linecap="round"/>
<path d="M150.959 484.749C148.213 489.347 146.803 490.913 146.803 490.913" stroke="#263238" stroke-miterlimit="10" stroke-linecap="round"/>
<path d="M192.125 388.898C192.125 388.898 180.908 395.982 173.813 419.125C166.717 442.267 161.224 465.41 155.501 476.509C154.86 477.752 154.254 478.897 153.683 479.95" stroke="#263238" stroke-miterlimit="10" stroke-linecap="round"/>
<path d="M224.153 272.543C222.625 273.976 220.446 276.756 219.593 281.452C218.219 289.009 222.569 312.387 224.628 320.415C226.688 328.444 230.58 342.141 230.808 343.794C230.82 343.884 230.85 343.976 230.887 344.069C233.389 339.973 239.346 332.243 249.787 329.556C249.548 325.928 247.05 288.007 246.832 286.882" fill="white"/>
<path d="M224.153 272.543C222.625 273.976 220.446 276.756 219.593 281.452C218.219 289.009 222.569 312.387 224.628 320.415C226.688 328.444 230.58 342.141 230.808 343.794C230.82 343.884 230.85 343.976 230.887 344.069C233.389 339.973 239.346 332.243 249.787 329.556C249.548 325.928 247.05 288.007 246.832 286.882" stroke="#263238" stroke-miterlimit="10"/>
<path d="M301.801 347.633C301.801 347.633 307.778 349.688 309.463 349.372C311.149 349.057 312.835 349.372 312.068 350.638C311.303 351.903 309.77 352.218 308.85 352.377C307.931 352.535 305.479 350.796 303.026 349.374C300.575 347.949 301.801 347.633 301.801 347.633Z" fill="white" stroke="#263238" stroke-miterlimit="10"/>
<path d="M305.545 349.744C301.751 347.333 297.317 346.162 292.908 345.788C288.68 345.431 284.21 345.915 280.252 344.03C274.301 341.197 249.808 329.861 249.808 329.861C249.808 329.861 243.398 330.098 238.592 334.584C233.785 339.071 232.87 339.78 230.809 343.794C231.038 345.447 235.387 347.572 240.881 349.461C246.374 351.351 261.94 353.003 272.011 353.003C282.083 353.003 283.685 352.767 284.83 353.003C285.908 353.226 294.91 356.173 299.392 357.5C300.431 358.079 301.879 358.881 302.585 359.245C303.754 359.848 307.726 362.162 309.77 361.861C311.815 361.56 308.719 359.245 308.719 359.245C308.719 359.245 312.516 360.149 313.685 359.848C314.854 359.547 315.73 358.04 315.73 358.04C315.767 356.986 314.312 356.603 313.448 355.853C311.132 353.843 308.441 351.583 305.545 349.744Z" fill="white" stroke="#263238" stroke-miterlimit="10"/>
<path d="M308.719 359.245C308.719 359.245 304.56 356.802 304.1 356.486C303.641 356.17 300.576 354.589 300.576 354.589" stroke="#263238" stroke-miterlimit="10"/>
<path d="M303.486 352.534C303.486 352.534 308.543 355.538 309.769 356.013C310.996 356.487 314.743 358.342 314.52 359.49" stroke="#263238" stroke-miterlimit="10"/>
<path d="M304.866 350.795C304.866 350.795 311.166 353.667 313.448 355.853" stroke="#263238" stroke-miterlimit="10"/>
<path d="M346.5 542.565C346.5 542.565 346.12 544.918 348.022 545.899C349.922 546.879 364.182 546.291 373.499 546.291C382.816 546.291 391.942 546.487 394.223 544.329C396.504 542.171 393.653 541.779 392.892 540.602C392.131 539.425 378.632 542.172 369.126 542.172C359.62 542.172 346.5 542.565 346.5 542.565Z" fill="#263238" stroke="#263238" stroke-miterlimit="10"/>
<path d="M365.134 438.605C365.134 438.605 366.845 451.747 370.078 469.793C373.31 487.839 375.781 518.242 375.401 522.557C375.02 526.873 364.183 531.972 358.099 534.718C352.015 537.464 344.981 539.622 345.17 541.192C345.361 542.76 351.065 543.545 356.198 543.938C361.332 544.33 379.204 544.526 383.767 543.545C388.331 542.565 392.132 541.78 392.893 540.602C393.654 539.425 391.752 523.93 391.752 519.222C391.752 514.514 391.562 506.472 394.414 491.958C397.266 477.442 396.886 465.281 395.174 458.024C393.463 450.767 391.372 446.647 391.372 445.274C391.372 443.901 391.372 434.289 391.372 434.289L365.134 438.605Z" fill="white" stroke="#263238" stroke-miterlimit="10"/>
<path d="M352.205 537.072C352.205 537.072 356.388 535.502 359.05 537.268C361.711 539.034 362.092 543.741 365.324 545.115C368.556 546.488 373.5 546.292 373.5 546.292C373.5 546.292 369.888 543.939 367.796 539.426C365.705 534.915 364.374 532.757 359.431 533.738C354.486 534.718 352.205 537.072 352.205 537.072Z" fill="#263238" stroke="#263238" stroke-miterlimit="10"/>
<path d="M341.368 191.848C341.368 191.848 337.756 199.694 338.515 202.243C339.276 204.794 340.226 209.108 339.656 210.873C339.086 212.639 334.712 216.562 335.473 218.916C336.234 221.269 341.938 223.819 341.938 223.819C341.938 223.819 341.747 237.157 344.79 239.118C347.832 241.079 354.296 239.118 354.296 239.118L358.099 251.672L382.816 235.783L379.583 225.583C379.583 225.583 378.442 220.68 378.632 214.403C378.823 208.126 383.766 205.576 378.252 194.591C372.738 183.607 349.733 180.076 346.31 183.803C342.888 187.533 341.368 191.848 341.368 191.848Z" fill="white" stroke="#263238" stroke-miterlimit="10"/>
<path d="M346.121 210.287C346.121 211.479 345.61 212.445 344.98 212.445C344.35 212.445 343.838 211.479 343.838 210.287C343.838 209.094 344.35 208.129 344.98 208.129C345.61 208.129 346.121 209.094 346.121 210.287Z" fill="#263238"/>
<path d="M342.888 227.351C342.888 227.351 348.211 226.174 350.113 222.252" stroke="#263238" stroke-miterlimit="10" stroke-linecap="round"/>
<path d="M341.747 205.971C341.747 205.971 344.789 201.46 348.592 205.774" stroke="#263238" stroke-miterlimit="10" stroke-linecap="round"/>
<path d="M345.325 176.15C345.325 176.15 335.38 181.28 334.332 185.061C333.286 188.841 337.996 195.322 342.445 194.512C346.895 193.702 353.962 190.461 354.746 190.461C355.531 190.461 351.082 196.131 352.129 198.292C353.176 200.452 355.27 200.992 356.056 202.882C356.84 204.773 355.794 208.012 356.84 209.363C357.887 210.713 359.458 211.523 360.242 209.903C361.027 208.282 360.766 205.852 363.644 204.773C366.523 203.693 369.926 204.773 370.188 208.012C370.45 211.252 368.88 215.303 367.571 217.193C366.263 219.084 366.263 219.084 366.263 219.084C366.263 219.084 374.9 224.214 376.208 224.484C377.518 224.754 379.087 226.105 379.873 224.214C380.658 222.324 383.014 217.463 384.584 211.254C386.155 205.043 390.08 197.212 385.108 185.601C380.135 173.99 366.263 173.72 361.29 173.45C356.318 173.18 347.419 173.72 345.325 176.15Z" fill="#263238" stroke="#263238" stroke-miterlimit="10"/>
<path d="M345.93 380.153C345.93 380.153 347.452 401.14 351.064 414.283C354.676 427.426 356.197 442.137 356.197 442.137C356.197 442.137 364.562 443.902 376.351 443.117C388.139 442.332 395.744 440.567 395.744 440.567L396.125 412.713L401.828 377.995C401.828 377.995 382.246 363.872 374.07 363.479C365.893 363.087 345.93 380.153 345.93 380.153Z" fill="#C9C9C9" stroke="#263238" stroke-miterlimit="10"/>
<path d="M372.212 431.609C372.9 436.13 373.688 438.802 373.688 438.802" stroke="#263238" stroke-miterlimit="10" stroke-linecap="round"/>
<path d="M374.83 374.66C374.83 374.66 371.407 403.886 371.218 416.832C371.162 420.627 371.351 424.084 371.647 427.077" stroke="#263238" stroke-miterlimit="10" stroke-linecap="round"/>
<path d="M364.182 375.249C364.182 375.249 363.421 383.879 371.407 387.607" stroke="#263238" stroke-miterlimit="10" stroke-linecap="round"/>
<path d="M354.106 258.931C354.106 258.931 345.169 285.411 341.557 306.792C337.945 328.173 341.177 349.161 341.177 349.945C341.177 350.73 344.029 386.234 344.029 386.234C344.029 386.234 348.212 382.9 357.719 377.211C367.225 371.523 374.26 369.169 374.26 369.169C374.26 369.169 383.196 377.408 389.089 379.957C394.984 382.507 406.771 386.431 406.771 386.431C406.771 386.431 411.905 376.035 408.672 362.304C405.44 348.574 399.166 326.998 399.166 326.998C399.166 326.998 402.588 290.122 400.307 270.507C398.026 250.892 382.814 235.788 382.814 235.788L354.106 258.931Z" fill="#92E3A9" stroke="#263238" stroke-miterlimit="10"/>
<path d="M382.244 231.47L351.253 252.655L352.584 262.855L385.858 237.356L382.244 231.47Z" fill="white" stroke="#263238" stroke-miterlimit="10"/>
<path d="M339.466 333.665C339.466 333.665 323.875 342.295 318.931 342.295C313.988 342.295 312.658 339.941 309.805 340.922C306.953 341.902 302.96 345.041 301.06 346.218C299.159 347.395 296.117 347.003 298.018 348.964C299.918 350.925 303.341 350.532 304.862 349.944C306.384 349.356 307.904 349.356 307.904 349.356C307.904 349.356 303.341 358.576 303.532 359.752C303.721 360.929 304.292 362.498 306.193 361.713C308.094 360.928 310.376 359.752 310.376 359.752C310.376 359.752 310.186 361.125 314.56 360.732C318.932 360.34 321.024 359.555 322.165 358.182C323.306 356.809 324.637 353.866 325.207 353.475C325.777 353.083 343.65 349.159 343.65 349.159L339.466 333.665Z" fill="white" stroke="#263238" stroke-miterlimit="10"/>
<path d="M373.499 255.597C373.499 255.597 364.182 259.324 361.901 269.328C359.62 279.331 355.817 320.523 355.817 320.523L342.888 327.78L348.782 350.533C348.782 350.533 383.957 336.607 385.858 326.8C387.758 316.992 392.322 271.878 392.322 271.878" fill="#92E3A9"/>
<path d="M373.499 255.597C373.499 255.597 364.182 259.324 361.901 269.328C359.62 279.331 355.817 320.523 355.817 320.523L342.888 327.78L348.782 350.533C348.782 350.533 383.957 336.607 385.858 326.8C387.758 316.992 392.322 271.878 392.322 271.878" stroke="#263238" stroke-miterlimit="10"/>
<path d="M336.424 329.938C336.424 329.938 340.607 352.103 341.747 352.299C342.888 352.495 349.922 351.318 352.394 349.945C354.866 348.573 349.733 326.407 348.972 325.23C348.211 324.053 340.607 326.211 336.424 329.938Z" fill="white" stroke="#263238" stroke-miterlimit="10"/>
</svg>
