<svg version="1.1" id="svg201" xml:space="preserve" width="300" height="300" viewBox="0 0 32 32" xmlns="http://www.w3.org/2000/svg" xmlns:svg="http://www.w3.org/2000/svg" xmlns:xlink="http://www.w3.org/1999/xlink" xmlns:svgjs="http://svgjs.dev/svgjs"><g width="100%" height="100%" transform="matrix(1,0,0,1,0,0)"><defs id="defs205"><clipPath clipPathUnits="userSpaceOnUse" id="clipPath215"><path d="M 0,24 H 24 V 0 H 0 Z" id="path213" fill="#ff0000" fill-opacity="1" data-original-color="#000000ff" stroke="none" stroke-opacity="1"/></clipPath></defs><g id="g207" transform="matrix(1.3333333,0,0,-1.3333333,0,32)"><g id="g209"><g id="g211" clip-path="url(#clipPath215)"><g id="g217" transform="translate(1,12)"><path d="M 0,0 C 0,6.075 4.925,11 11,11 17.075,11 22,6.075 22,0 22,-6.075 17.075,-11 11,-11 4.925,-11 0,-6.075 0,0 Z" style="stroke-linecap: round; stroke-linejoin: round; stroke-miterlimit: 10; stroke-dasharray: none;" id="path219" fill="none" fill-opacity="1" stroke="#ff0000" stroke-opacity="1" data-original-stroke-color="#000000ff" stroke-width="2" data-original-stroke-width="2"/></g><g id="g221" transform="translate(17,7)"><path d="M 0,0 C 0,0 -2.238,2 -5,2 -7.762,2 -10,0 -10,0" style="stroke-linecap: round; stroke-linejoin: round; stroke-miterlimit: 10; stroke-dasharray: none;" id="path223" fill="none" fill-opacity="1" stroke="#ff0000" stroke-opacity="1" data-original-stroke-color="#000000ff" stroke-width="2" data-original-stroke-width="2"/></g><g id="g225" transform="translate(6,14)"><path d="M 0,0 C 0,-1 0.896,-1 2,-1 3.104,-1 4,-1 4,0 4,1.104 3.104,2 2,2 0.896,2 0,1.104 0,0" style="fill-rule: nonzero;" id="path227" fill="#ff0000" fill-opacity="1" data-original-color="#000000ff" stroke="none" stroke-opacity="1"/></g><g id="g229" transform="translate(14,14)"><path d="M 0,0 C 0,-1 0.896,-1 2,-1 3.104,-1 4,-1 4,0 4,1.104 3.104,2 2,2 0.896,2 0,1.104 0,0" style="fill-rule: nonzero;" id="path231" fill="#ff0000" fill-opacity="1" data-original-color="#000000ff" stroke="none" stroke-opacity="1"/></g></g></g></g></g></svg>